<svg width="471" height="290" viewBox="0 0 471 290" fill="none" xmlns="http://www.w3.org/2000/svg">
<path opacity="0.1" d="M228.599 65.6373C247.968 62.8916 266.297 55.3224 282.103 43.8945C305.775 26.7526 355.197 -2.4109 402.393 12.1337C467.547 32.0955 467.844 90.0515 450.85 121.515C433.931 152.979 313.641 245.145 157.731 230.526C18.2215 217.391 -8.93835 67.1956 65.4174 39.9615C130.052 16.4378 152.017 76.4715 228.599 65.6373Z" fill="#E14E10"/>
<path d="M447.957 151.866C445.047 151.866 442.688 149.507 442.688 146.597C442.688 143.688 445.047 141.329 447.957 141.329C450.867 141.329 453.226 143.688 453.226 146.597C453.226 149.507 450.867 151.866 447.957 151.866Z" fill="#FFCDB3"/>
<path opacity="0.2" d="M229.794 289.828C145.286 289.828 76.7786 287.369 76.7786 284.337C76.7786 281.304 145.286 278.845 229.794 278.845C314.302 278.845 382.81 281.304 382.81 284.337C382.81 287.369 314.302 289.828 229.794 289.828Z" fill="#E14E10"/>
<path d="M262.958 71.3513L262.735 72.5386L262.438 73.8001L261.845 76.3974C261.474 78.1783 261.028 79.8851 260.583 81.6661C260.138 83.4471 259.693 85.1538 259.173 86.8606C258.728 88.5674 258.209 90.2741 257.689 91.9809C257.17 93.6877 256.576 95.3202 255.982 96.9528C255.389 98.5854 254.795 100.218 254.127 101.702C253.459 103.26 252.791 104.745 252.049 106.229C251.307 107.639 250.565 109.049 249.749 110.236C248.933 111.497 248.116 112.611 247.374 113.501C246.558 114.392 245.816 115.134 245.148 115.505C244.851 115.727 244.554 115.876 244.332 115.95C244.109 116.024 243.961 116.098 243.738 116.173H243.664L243.367 116.247L242.699 116.395L241.363 116.618L238.618 117.063L235.872 117.508L233.126 117.953C231.271 118.25 229.49 118.547 227.635 118.77L224.889 119.215C223.999 119.363 223.034 119.512 222.144 119.66L220.734 119.883L219.324 120.106C218.879 120.18 218.433 120.254 217.914 120.328C217.469 120.402 216.949 120.477 216.578 120.551L216.207 120.625C211.903 121.441 209.009 125.597 209.825 129.975C210.493 133.537 213.461 136.134 216.949 136.431L218.433 136.58C218.953 136.654 219.398 136.654 219.918 136.728C220.882 136.802 221.921 136.876 222.886 136.951L224.37 137.025L225.854 137.099C226.819 137.099 227.783 137.173 228.822 137.173C229.787 137.173 230.826 137.173 231.791 137.173C232.755 137.173 233.794 137.173 234.759 137.173C236.763 137.173 238.692 137.099 240.696 137.025C241.66 136.951 242.699 136.951 243.664 136.876L245.148 136.802L245.89 136.728H246.261L246.929 136.654C248.636 136.431 250.343 135.986 251.901 135.392C253.459 134.799 254.869 134.056 256.205 133.314C257.541 132.498 258.728 131.682 259.767 130.717C260.88 129.827 261.845 128.862 262.735 127.971C263.626 127.007 264.442 126.042 265.258 125.077C266 124.113 266.742 123.148 267.41 122.183C268.746 120.254 269.933 118.325 270.972 116.321C272.011 114.392 272.976 112.388 273.792 110.459C274.683 108.529 275.425 106.526 276.167 104.596C276.909 102.667 277.577 100.663 278.244 98.7338C278.838 96.8044 279.432 94.8008 280.025 92.8714C280.545 90.942 281.064 88.9384 281.51 87.009C281.955 85.0796 282.4 83.076 282.845 81.0724C283.068 80.1077 283.216 79.0688 283.439 78.1041L283.736 76.62L283.884 75.8779L284.033 74.9874C284.923 69.1992 280.916 63.7821 275.128 62.8916C269.488 62.0011 264.219 65.7857 263.106 71.2771L262.958 71.3513Z" fill="#FFAA8C"/>
<path d="M285.665 77.5847C284.255 82.4082 278.541 98.808 273.495 106.971L251.307 96.5076C251.307 96.5076 258.876 78.9947 262.809 67.9378C264.071 64.3758 266.891 61.4817 270.527 60.2202C272.976 59.4039 275.87 59.1813 279.135 60.7397C285.517 63.7822 286.185 70.8319 286.11 74.3196C286.185 75.5069 285.962 76.5458 285.665 77.5847Z" fill="#E14E10"/>
<path d="M201.513 249.672L195.651 259.17L184.519 254.273L189.565 244.032L201.513 249.672Z" fill="#FFAA8C"/>
<path d="M149.237 259.375L191.313 278.001C191.906 277.556 192.426 276.813 192.871 275.923C194.726 272.509 196.062 266.276 197.101 262.417C197.249 261.972 197.323 261.527 197.472 261.156C197.695 260.488 197.843 259.968 197.991 259.672C199.253 256.777 196.507 256.11 196.507 256.11C190.422 258.41 188.344 250.025 184.634 250.841C184.634 250.841 183.001 251.138 178.326 252.696C173.651 254.254 167.047 253.661 161.333 253.587C153.912 253.438 151.018 255.293 149.831 256.926C149.014 258.187 149.237 259.375 149.237 259.375Z" fill="#2196F3"/>
<path d="M149.272 259.69L191.347 278.316C191.941 277.87 192.46 277.128 192.906 276.238L149.865 257.167C149.049 258.502 149.272 259.69 149.272 259.69Z" fill="#E14E10"/>
<path d="M187.118 276.46L188.379 276.98C187.786 274.976 187.563 272.305 189.121 269.262C191.199 265.181 194.909 263.474 197.284 262.806C197.433 262.361 197.507 261.916 197.655 261.545C195.132 262.138 190.605 263.845 188.157 268.743C186.598 271.711 186.598 274.308 187.118 276.46Z" fill="#E14E10"/>
<path d="M177.99 255.831C178.287 255.979 178.658 255.905 178.88 255.608C179.103 255.311 179.103 254.792 178.732 254.569L176.357 252.714C176.06 252.492 175.541 252.492 175.318 252.863C175.096 253.159 175.096 253.679 175.467 253.902L177.841 255.757C177.916 255.757 177.99 255.757 177.99 255.831Z" fill="#E14E10"/>
<path d="M181.626 254.792C181.923 254.94 182.294 254.866 182.517 254.569C182.739 254.272 182.739 253.753 182.368 253.53L179.994 251.675C179.697 251.452 179.178 251.452 178.955 251.823C178.732 252.12 178.732 252.64 179.103 252.862L181.478 254.717C181.478 254.717 181.552 254.717 181.626 254.792Z" fill="#E14E10"/>
<path d="M174.724 256.202C175.021 256.35 175.392 256.276 175.615 255.979C175.838 255.682 175.838 255.163 175.467 254.94L173.092 253.085C172.795 252.862 172.276 252.862 172.053 253.233C171.83 253.53 171.83 254.05 172.201 254.272L174.576 256.128C174.576 256.128 174.65 256.128 174.724 256.202Z" fill="#E14E10"/>
<path d="M171.46 256.499C171.757 256.648 172.128 256.573 172.35 256.276C172.573 255.98 172.573 255.46 172.202 255.238L169.827 253.382C169.53 253.16 169.011 253.16 168.788 253.531C168.566 253.828 168.566 254.347 168.937 254.57L171.311 256.425C171.311 256.425 171.386 256.425 171.46 256.499Z" fill="#E14E10"/>
<path d="M167.972 256.573C168.269 256.721 168.64 256.647 168.862 256.35C169.085 256.053 169.085 255.534 168.714 255.311L166.339 253.456C166.043 253.233 165.523 253.233 165.3 253.604C165.078 253.901 165.078 254.421 165.449 254.643L167.824 256.498C167.824 256.498 167.898 256.573 167.972 256.573Z" fill="#E14E10"/>
<path d="M164.335 256.35C164.632 256.499 165.003 256.424 165.226 256.128C165.449 255.831 165.449 255.311 165.078 255.089L162.703 253.233C162.406 253.011 161.887 253.011 161.664 253.382C161.441 253.679 161.441 254.198 161.812 254.421L164.187 256.276C164.187 256.276 164.261 256.35 164.335 256.35Z" fill="#E14E10"/>
<path d="M227.634 157.506C231.567 153.647 262.363 145.039 282.845 150.753C285.219 155.28 288.188 166.708 280.841 177.319C253.904 181.698 238.914 190.751 238.914 190.751C238.914 190.751 229.341 212.791 223.701 220.879C218.062 228.968 205.001 254.718 205.001 254.718L185.41 246.332C185.485 246.332 217.023 167.969 227.634 157.506Z" fill="#1A060A"/>
<path d="M207.153 249.894C207.079 249.894 207.005 249.894 206.93 249.82L187.785 241.88C187.488 241.732 187.34 241.435 187.488 241.138C187.636 240.841 187.933 240.693 188.23 240.841L207.376 248.781C207.672 248.93 207.821 249.227 207.672 249.523C207.598 249.746 207.376 249.894 207.153 249.894Z" fill="#35252F"/>
<path d="M203.962 248.262C203.888 248.262 203.813 248.262 203.739 248.187C203.442 248.039 203.294 247.742 203.442 247.445C203.517 247.371 207.524 237.353 216.874 223.105C226.15 209.006 235.871 185.111 236.019 184.889C236.168 184.592 236.465 184.443 236.761 184.592C237.058 184.74 237.207 185.037 237.058 185.334C236.984 185.556 227.189 209.525 217.839 223.699C208.563 237.798 204.555 247.742 204.555 247.816C204.333 248.113 204.184 248.262 203.962 248.262Z" fill="#35252F"/>
<path d="M251.01 251.304L249.526 262.435H237.282L237.801 251.008L251.01 251.304Z" fill="#FFAA8C"/>
<path d="M207.193 281.34H253.276C253.647 280.747 253.795 279.856 253.87 278.817C254.167 274.884 252.905 268.725 252.311 264.792C252.237 264.347 252.163 263.901 252.089 263.53C252.014 262.863 251.94 262.343 251.94 261.898C251.94 258.707 249.12 259.226 249.12 259.226C244.445 263.827 239.177 256.926 236.06 259.226C236.06 259.226 234.724 260.191 231.088 263.456C227.452 266.721 221.218 268.948 215.95 271.1C209.123 273.994 207.193 276.814 206.822 278.743C206.525 280.375 207.193 281.34 207.193 281.34Z" fill="#2196F3"/>
<path d="M207.228 281.655H253.311C253.682 281.061 253.83 280.171 253.904 279.132H206.857C206.56 280.69 207.228 281.655 207.228 281.655Z" fill="#E14E10"/>
<path d="M248.635 281.655H249.971C248.635 280.097 247.299 277.722 247.522 274.308C247.745 269.782 250.49 266.665 252.345 265.107C252.271 264.662 252.197 264.216 252.123 263.845C250.045 265.404 246.631 268.817 246.335 274.308C246.26 277.499 247.374 279.948 248.635 281.655Z" fill="#E14E10"/>
<path d="M232.013 266.442C232.384 266.442 232.68 266.22 232.755 265.849C232.829 265.478 232.606 265.032 232.235 264.958L229.341 264.216C228.97 264.142 228.525 264.365 228.451 264.736C228.376 265.107 228.599 265.552 228.97 265.626L231.864 266.368C231.864 266.442 231.938 266.442 232.013 266.442Z" fill="#E14E10"/>
<path d="M234.833 264.067C235.204 264.067 235.501 263.845 235.575 263.474C235.649 263.103 235.427 262.657 235.056 262.583L232.162 261.841C231.791 261.767 231.345 261.99 231.271 262.361C231.197 262.732 231.42 263.177 231.791 263.251L234.685 263.993C234.759 264.067 234.759 264.067 234.833 264.067Z" fill="#E14E10"/>
<path d="M229.12 268.148C229.491 268.148 229.788 267.926 229.862 267.555C229.936 267.184 229.713 266.738 229.342 266.664L226.448 265.922C226.077 265.848 225.632 266.071 225.558 266.442C225.484 266.813 225.706 267.258 226.077 267.332L228.971 268.074C228.971 268.148 229.046 268.148 229.12 268.148Z" fill="#E14E10"/>
<path d="M226.225 269.782C226.596 269.782 226.892 269.559 226.967 269.188C227.041 268.817 226.818 268.372 226.447 268.298L223.553 267.555C223.182 267.481 222.737 267.704 222.663 268.075C222.588 268.446 222.811 268.891 223.182 268.965L226.076 269.707C226.076 269.707 226.15 269.782 226.225 269.782Z" fill="#E14E10"/>
<path d="M223.108 271.266C223.479 271.266 223.776 271.043 223.85 270.672C223.924 270.301 223.701 269.856 223.33 269.782L220.436 269.04C220.065 268.965 219.62 269.188 219.546 269.559C219.472 269.93 219.694 270.375 220.065 270.45L222.959 271.192C222.959 271.266 223.034 271.266 223.108 271.266Z" fill="#E14E10"/>
<path d="M219.694 272.527C220.065 272.527 220.362 272.304 220.437 271.933C220.511 271.562 220.288 271.117 219.917 271.043L217.023 270.301C216.652 270.227 216.207 270.449 216.132 270.82C216.058 271.191 216.281 271.637 216.652 271.711L219.546 272.453C219.546 272.527 219.62 272.527 219.694 272.527Z" fill="#E14E10"/>
<path d="M263.774 67.1216C263.7 71.6482 268.672 79.8852 271.862 97.6208C271.937 98.066 272.011 98.5113 272.085 98.9565C272.234 99.9212 272.382 100.96 272.605 101.999C272.679 102.444 272.753 102.815 272.753 103.261C272.901 104.299 273.05 105.338 273.198 106.451C273.272 106.823 273.272 107.194 273.347 107.565C273.495 108.975 273.643 110.384 273.792 111.869C273.94 113.204 274.015 114.466 274.089 115.876C274.163 116.544 274.163 117.286 274.237 117.954C274.237 118.696 274.311 119.438 274.311 120.18C274.682 128.12 275.128 146.746 274.46 157.135C288.782 166.188 318.613 166.708 338.723 151.718C339.911 144.594 338.055 120.402 337.462 113.204C337.313 111.794 337.165 110.31 337.017 108.9C336.2 101.999 334.79 95.172 333.084 88.1223C333.009 87.7512 332.861 87.3802 332.787 86.9349C331.377 81.0726 329.818 75.0618 328.112 68.6799C324.847 55.9905 319.058 48.8666 311.415 49.1634C307.853 49.2376 304.959 48.7924 302.733 48.2729C302.436 48.1987 302.213 48.1245 301.991 48.0503C299.319 47.3082 297.761 46.4177 297.761 46.4177L281.138 49.6086C280.1 51.9833 278.541 53.6158 276.76 54.8774C276.538 55.0258 276.389 55.1742 276.167 55.3226C270.824 58.9588 263.848 59.7008 263.774 67.1216Z" fill="#E14E10"/>
<path d="M272.604 101.999C272.679 102.444 272.753 102.815 272.753 103.26C272.901 104.299 273.05 105.338 273.198 106.451C273.272 106.822 273.272 107.193 273.346 107.564C273.495 108.974 273.643 110.384 273.792 111.868C273.94 113.204 274.014 114.466 274.088 115.876C274.163 116.543 274.163 117.285 274.237 117.953L278.764 123.667L284.032 109.345L274.46 96.9526L272.604 101.999Z" fill="#E14E10"/>
<path d="M298.725 107.119L293.308 121.367L283.958 109.345L289.301 94.5781L298.725 107.119Z" fill="#E14E10"/>
<path d="M313.567 105.041L308.001 119.289L298.725 107.119L304.217 92.426L313.567 105.041Z" fill="#AD2F24"/>
<path d="M328.334 103.186L322.62 117.285L313.492 105.041L319.132 90.4221L328.334 103.186Z" fill="#E14E10"/>
<path d="M331.897 146.894C332.12 146.894 332.268 146.746 332.268 146.523C333.9 106.897 326.406 77.6588 326.331 77.362C326.257 77.1394 326.109 77.0652 325.886 77.0652C325.663 77.1394 325.589 77.2878 325.589 77.5104C325.663 77.8073 333.158 106.897 331.526 146.449C331.526 146.672 331.674 146.894 331.897 146.894Z" fill="white"/>
<path d="M289.004 64.0053C288.39 64.0053 287.891 63.5069 287.891 62.8922C287.891 62.2774 288.39 61.7791 289.004 61.7791C289.619 61.7791 290.117 62.2774 290.117 62.8922C290.117 63.5069 289.619 64.0053 289.004 64.0053Z" fill="white"/>
<path d="M289.301 69.4962C288.686 69.4962 288.188 68.9979 288.188 68.3831C288.188 67.7684 288.686 67.27 289.301 67.27C289.915 67.27 290.414 67.7684 290.414 68.3831C290.414 68.9979 289.915 69.4962 289.301 69.4962Z" fill="white"/>
<path d="M288.558 76.7686C291.304 75.8781 293.976 74.2455 296.573 71.7967C301.025 67.641 303.622 62.5207 303.622 62.5207C303.697 62.2981 303.623 62.0755 303.474 62.0013C303.326 61.8529 303.103 61.9271 302.955 62.1497C302.955 62.2239 300.357 67.1958 296.053 71.2772C290.265 76.6943 284.254 78.1043 278.169 75.507C277.947 75.4328 277.798 75.507 277.724 75.7296C277.65 75.9523 277.724 76.1749 277.947 76.2491C281.435 77.8075 284.996 78.0301 288.484 76.917C288.484 76.7685 288.484 76.7686 288.558 76.7686Z" fill="white"/>
<path d="M287.743 57.8457C291.676 57.1036 295.535 52.8738 295.757 52.6512C295.906 52.5027 295.906 52.2801 295.757 52.0575C295.609 51.8349 295.386 51.9091 295.238 52.0575C295.164 52.1317 288.633 59.1814 284.478 56.5841C284.329 56.4357 284.107 56.5099 283.958 56.7326C283.884 56.9552 283.958 57.1778 284.107 57.252C285.22 57.9199 286.481 58.0683 287.743 57.8457Z" fill="white"/>
<path d="M295.089 140.884C296.573 140.587 298.058 140.216 299.542 139.622C303.178 138.287 306.814 136.06 310.376 133.092C316.461 128.046 320.246 122.406 320.246 122.332C320.394 122.184 320.32 121.887 320.171 121.813C320.023 121.664 319.8 121.738 319.652 121.887C319.652 121.961 315.867 127.527 309.931 132.498C304.439 137.099 295.831 142.145 286.184 140.068C285.962 139.993 285.813 140.142 285.739 140.364C285.739 140.587 285.813 140.81 286.036 140.81C288.93 141.478 291.973 141.478 295.089 140.884Z" fill="white"/>
<path d="M293.011 26.3072C293.233 28.2366 295.979 27.2719 297.315 25.9361C297.909 25.3425 297.612 24.0067 297.537 22.3742C297.463 20.3706 297.018 21.7063 298.428 18.8122C299.912 15.6955 297.463 11.0947 295.46 11.3915C295.46 11.3915 297.166 6.71643 293.011 4.11917C289.3 1.81875 286.926 4.416 286.926 4.416C286.926 4.416 285.59 0.55722 282.177 0.631428C278.763 0.705635 276.759 4.26759 276.759 4.26759C276.759 4.26759 274.014 1.67033 270.378 3.82234C266.741 5.97436 268.522 8.72003 268.522 8.72003C268.522 8.72003 264.515 8.94265 263.551 12.3562C262.66 15.2503 264.886 16.957 264.886 16.957C264.886 16.957 263.402 18.5154 264.367 21.6321C265.183 24.3036 267.187 24.1552 267.558 26.0103C267.78 27.0492 268.226 28.2366 268.597 29.1271C268.893 29.7949 269.784 30.8338 270.452 30.7596C271.342 30.6112 271.639 28.9786 271.342 28.0882C270.897 26.604 270.378 24.452 271.045 22.9678C272.159 20.5932 270.749 18.1444 272.975 16.957C275.201 15.7697 283.883 18.2928 288.855 13.8403C288.855 13.8403 289.152 17.1797 291.304 17.7733C293.456 18.367 293.085 21.0385 293.085 23.2647C292.937 24.1552 293.011 26.3072 293.011 26.3072Z" fill="#030229"/>
<path d="M280.396 46.7882L281.212 51.018C281.806 51.3148 282.326 51.6117 282.919 51.7601C291.082 54.8026 297.983 47.8271 297.983 47.8271L295.238 33.2083L282.251 45.1556L280.396 46.7882Z" fill="#FFAA8C"/>
<path d="M280.396 46.7886L281.213 51.0184C281.806 51.3153 282.326 51.6121 282.919 51.7605C288.708 48.1243 291.973 40.7036 291.973 40.7036L282.177 45.1561L280.396 46.7886Z" fill="#D0886F"/>
<path d="M271.565 29.0529C271.565 29.0529 268.597 26.6783 267.78 29.795C266.964 32.9117 269.116 38.403 272.53 36.7705L271.565 29.0529Z" fill="#FFAA8C"/>
<path d="M270.897 39.516C270.897 39.516 272.53 48.2725 281.583 46.4915C290.636 44.7847 295.386 36.4735 295.682 36.1024L295.46 34.2473L294.198 24.6003L293.53 19.48C293.53 19.48 292.937 10.1299 283.883 10.0557C277.279 10.0557 271.491 12.2077 269.116 16.1407C269.042 16.2891 268.968 16.3633 268.894 16.5117C268.151 17.8474 267.855 19.4058 268.003 21.1126L269.487 30.3143L269.858 32.5405L270.897 39.516Z" fill="#FFAA8C"/>
<path d="M284.848 20.2959C284.552 21.409 283.513 22.0769 282.4 21.8543C281.732 21.7059 280.99 21.5574 280.248 21.5574C279.134 21.5574 278.318 20.5928 278.392 19.4796C278.318 19.4796 282.474 18.2923 284.848 20.2959Z" fill="#35252F"/>
<path d="M268.449 23.4134C269.116 24.3781 270.378 24.6007 271.343 23.9329C271.862 23.5618 272.53 23.1908 273.272 22.894C274.311 22.4487 274.756 21.2614 274.237 20.2967C274.237 20.2225 269.933 20.6677 268.449 23.4134Z" fill="#35252F"/>
<path d="M269.025 16.319C270.391 15.5611 271.529 15.7885 273.957 16.3948C277.523 17.2285 280.938 15.258 283.821 12.9844C286.78 10.7107 289.133 12.6812 288.298 14.3485C287.463 16.0917 287.843 17.3043 289.436 18.9716C291.03 20.6389 287.691 22.2305 289.891 23.3673C290.802 23.822 290.954 24.8073 290.802 25.7925C290.65 26.8535 291.637 27.6872 292.623 27.3082C293.61 26.8535 294.748 24.6557 294.748 24.6557L294.065 19.4263C294.065 19.4263 293.458 9.87706 284.201 9.80127C277.447 9.80127 271.529 11.9991 269.101 16.0159C269.176 16.0917 269.101 16.1674 269.025 16.319Z" fill="#030229"/>
<path d="M284.628 29.7778C283.018 30.0837 281.613 29.8095 281.49 29.1653C281.368 28.5211 282.574 27.7509 284.185 27.445C285.795 27.1391 287.2 27.4133 287.323 28.0575C287.445 28.7017 286.238 29.4719 284.628 29.7778Z" fill="#FD9983"/>
<path d="M269.784 32.5403C270.007 32.5403 270.229 32.466 270.526 32.466C272.159 32.1692 273.346 31.4271 273.197 30.7593C273.049 30.0914 271.639 29.8688 270.081 30.1656C269.858 30.2398 269.636 30.2398 269.487 30.314L269.784 32.5403Z" fill="#FD9983"/>
<path d="M281.527 27.2403C281.044 27.332 280.516 26.6884 280.348 25.8026C280.18 24.9168 280.435 24.1244 280.918 24.0326C281.401 23.9408 281.929 24.5845 282.098 25.4703C282.266 26.3561 282.011 27.1485 281.527 27.2403Z" fill="#35252F"/>
<path d="M272.764 28.8709C272.281 28.9627 271.753 28.319 271.584 27.4332C271.416 26.5475 271.671 25.755 272.155 25.6632C272.638 25.5715 273.166 26.2151 273.334 27.1009C273.502 27.9867 273.247 28.7791 272.764 28.8709Z" fill="#35252F"/>
<path d="M276.908 35.3606C280.099 34.7669 282.177 31.5018 282.251 31.5018C282.325 31.3534 282.325 31.1308 282.103 30.9824C281.954 30.9082 281.732 30.9082 281.583 31.1308C281.435 31.3534 278.17 36.3253 273.717 34.2475C273.569 34.1733 273.346 34.2475 273.198 34.3959C273.123 34.5443 273.198 34.7669 273.346 34.9154C274.682 35.509 275.869 35.5832 276.908 35.3606Z" fill="#35252F"/>
<path d="M292.195 33.0603C292.269 33.1345 293.901 35.5834 295.682 36.0286L295.46 34.1734C295.46 34.2476 293.976 34.2476 292.195 33.0603Z" fill="#35252F"/>
<path d="M292.64 26.7525C292.64 26.7525 295.237 21.4096 298.502 24.6005C301.174 27.2719 298.725 35.88 294.05 33.9506L292.64 26.7525Z" fill="#FFAA8C"/>
<path d="M294.199 32.4663C294.347 32.4663 294.495 32.2437 294.495 32.0953C294.199 28.4591 296.944 26.6782 297.093 26.604C297.241 26.5298 297.315 26.2329 297.167 26.0845C297.093 25.9361 296.87 25.8619 296.647 25.9361C296.499 26.0103 293.456 28.0139 293.753 32.0953C293.828 32.3179 293.976 32.4663 294.199 32.4663Z" fill="#35252F"/>
<path d="M297.167 29.6464C297.241 29.6464 297.39 29.5721 297.39 29.4237C297.464 29.2753 297.39 29.0527 297.241 28.9043C297.093 28.8301 295.609 28.0138 294.57 28.5332C294.421 28.6075 294.273 28.8301 294.421 29.0527C294.496 29.2011 294.718 29.3495 294.941 29.2011C295.534 28.9043 296.573 29.3495 296.944 29.5721C297.019 29.6464 297.093 29.6464 297.167 29.6464Z" fill="#35252F"/>
<path d="M263.848 29.1271L269.191 28.3108L269.339 29.0529L263.996 29.8691C263.773 29.8691 263.625 29.7949 263.551 29.5723C263.477 29.3497 263.625 29.2013 263.848 29.1271Z" fill="#E14E10"/>
<path d="M284.774 31.3533C288.188 30.6855 290.488 27.4203 289.82 23.9326C289.152 20.5191 285.887 18.2186 282.4 18.8865C278.986 19.5544 276.686 22.8195 277.354 26.3072C278.021 29.795 281.361 32.0212 284.774 31.3533ZM282.548 19.7028C285.591 19.1091 288.485 21.1127 289.078 24.1552C289.672 27.1977 287.668 30.0918 284.626 30.6855C281.583 31.2791 278.689 29.2755 278.096 26.233C277.576 23.1905 279.58 20.2964 282.548 19.7028Z" fill="#E14E10"/>
<path d="M270.081 34.1729C273.495 33.505 275.795 30.2399 275.127 26.7522C274.46 23.3386 271.194 21.0382 267.707 21.7061C264.293 22.3739 261.993 25.6391 262.661 29.1268C263.403 32.5403 266.668 34.8408 270.081 34.1729ZM267.929 22.4481C270.972 21.8545 273.866 23.8581 274.46 26.9006C275.053 29.9431 273.05 32.8372 270.007 33.4308C266.965 34.0245 264.071 32.0209 263.477 28.9784C262.883 25.9359 264.887 23.0418 267.929 22.4481Z" fill="#E14E10"/>
<path d="M297.389 23.8586C297.464 23.8586 297.464 23.8586 297.538 23.7844C297.686 23.7102 297.76 23.4134 297.686 23.265C295.237 19.332 289.152 22.7455 289.078 22.7455C288.93 22.8197 288.856 23.0424 288.93 23.265C289.004 23.4134 289.227 23.4876 289.449 23.4134C289.523 23.4134 294.941 20.2967 297.018 23.636C297.093 23.8586 297.241 23.9328 297.389 23.8586Z" fill="#E14E10"/>
<path d="M277.576 30.8339C277.798 30.7597 277.873 30.6113 277.873 30.3887C277.798 30.1661 277.65 30.0919 277.427 30.0919C276.092 30.3145 275.35 29.795 275.127 29.4982C276.017 26.3073 276.834 23.0422 276.834 22.968C276.908 22.7453 276.76 22.5969 276.537 22.5227C276.314 22.4485 276.166 22.5969 276.092 22.8196C276.092 22.8196 275.201 26.2331 274.311 29.4982C274.311 29.5724 274.311 29.7208 274.385 29.795C274.459 29.9435 275.424 31.2792 277.576 30.8339Z" fill="#35252F"/>
<path d="M274.534 25.8623C274.608 25.8623 274.682 25.7881 274.756 25.7139C275.572 24.4523 277.279 25.046 277.279 25.046C277.502 25.1202 277.724 25.046 277.724 24.8234C277.799 24.6008 277.724 24.3781 277.502 24.3781C276.686 24.0813 274.979 23.9329 274.088 25.2686C273.94 25.417 274.014 25.6397 274.163 25.7881C274.385 25.8623 274.459 25.9365 274.534 25.8623Z" fill="#E14E10"/>
<path d="M297.019 42.8553C297.019 42.8553 303.178 42.7069 304.44 48.5693L300.729 56.8063C300.729 56.8063 297.242 52.057 289.079 52.3539C289.005 52.3539 295.09 47.8272 297.019 42.8553Z" fill="white"/>
<path d="M284.404 52.2059C284.404 52.2059 281.361 51.0185 280.545 47.7534C280.545 47.7534 275.128 50.8701 275.202 55.842L280.174 58.2909C280.248 58.3651 281.955 53.9868 284.404 52.2059Z" fill="white"/>
<path d="M338.871 151.05C338.871 151.05 348.37 188.599 299.096 188.599C272.753 188.599 260.212 186.076 260.212 186.076C260.212 186.076 259.544 209.303 258.356 219.173C257.095 228.968 252.791 253.456 252.791 253.456L232.013 255.089C232.013 255.089 228.674 169.973 241.437 162.107C254.127 154.241 272.456 154.018 303.846 151.05C303.846 150.902 332.044 146.153 338.871 151.05Z" fill="#35252F"/>
<path d="M249.971 246.555C249.897 246.555 249.897 246.555 249.823 246.555C249.526 246.48 249.303 246.184 249.378 245.887C252.272 233.939 253.385 216.723 254.275 202.995C255.166 189.415 255.685 182.291 257.095 181.03C258.653 179.62 263.254 180.139 270.898 180.955C280.396 181.994 294.718 183.478 310.153 181.697C317.797 180.807 323.733 177.839 327.666 172.793C334.716 163.739 333.083 151.05 333.083 150.901C333.009 150.604 333.232 150.308 333.603 150.233C333.9 150.159 334.196 150.382 334.271 150.753C334.345 151.272 335.977 164.036 328.631 173.46C324.475 178.729 318.39 181.92 310.376 182.81C294.792 184.591 280.396 183.033 270.898 182.068C264.293 181.401 259.099 180.807 257.911 181.846C257.615 182.068 257.095 183.256 256.576 188.376C256.205 192.161 255.834 197.207 255.462 203.069C254.572 216.872 253.385 234.088 250.491 246.184C250.491 246.406 250.194 246.555 249.971 246.555Z" fill="#67505A"/>
<path d="M232.31 248.262C232.013 248.262 231.79 248.039 231.716 247.742C231.716 247.445 231.939 247.148 232.236 247.148L253.459 245.887C253.756 245.887 254.052 246.11 254.052 246.406C254.052 246.703 253.83 247 253.533 247L232.31 248.262Z" fill="#67505A"/>
<path d="M304.439 64.9696L304.365 66.4537L304.291 68.0121C304.217 69.051 304.143 70.1641 304.068 71.203C303.846 73.355 303.697 75.4328 303.401 77.5848C303.252 78.6237 303.178 79.7368 303.03 80.7758C302.881 81.8147 302.733 82.8536 302.584 83.9667C302.287 86.0445 301.916 88.1223 301.545 90.2001C301.174 92.2779 300.729 94.2815 300.284 96.2851C300.061 97.2498 299.764 98.2887 299.542 99.2534C299.245 100.218 299.022 101.183 298.725 102.073C298.132 103.928 297.464 105.709 296.796 107.416C296.054 109.049 295.312 110.607 294.496 111.869C293.679 113.13 292.863 114.095 292.195 114.689C291.898 114.985 291.602 115.208 291.379 115.282L291.305 115.356H291.231C291.082 115.431 290.86 115.505 290.711 115.579L290.414 115.727L290.117 115.876C289.895 115.95 289.746 116.024 289.524 116.098C288.707 116.395 287.817 116.692 286.927 116.989C286.036 117.286 285.071 117.508 284.032 117.731C282.029 118.25 280.025 118.696 277.947 119.067C275.87 119.438 273.718 119.883 271.566 120.18C270.527 120.328 269.414 120.551 268.375 120.699C267.262 120.848 266.223 121.07 265.11 121.219C262.958 121.516 260.731 121.812 258.579 122.109L252.049 122.926H251.826C247.448 123.519 244.406 127.526 244.925 131.83C245.445 135.689 248.636 138.583 252.42 138.732L253.311 138.806H254.201C254.795 138.806 255.388 138.88 255.982 138.88C257.169 138.88 258.282 138.954 259.47 138.954C261.77 138.954 264.145 138.954 266.445 138.88C267.633 138.88 268.82 138.806 269.933 138.732C271.12 138.657 272.308 138.583 273.495 138.509C275.87 138.361 278.244 138.212 280.619 137.915C282.994 137.619 285.442 137.322 287.891 136.951C290.34 136.505 292.863 135.986 295.535 135.244C295.906 135.17 296.202 135.021 296.573 134.947L297.093 134.799L297.612 134.65C297.983 134.502 298.354 134.428 298.651 134.279H298.725H298.8L298.948 134.205L299.319 134.057C299.542 133.982 299.764 133.834 299.987 133.76C301.768 132.944 303.475 131.905 304.885 130.792C307.779 128.565 309.857 126.042 311.638 123.519C313.344 120.996 314.68 118.547 315.867 116.098C316.981 113.65 317.945 111.201 318.761 108.752C319.207 107.565 319.578 106.303 319.949 105.116C320.32 103.928 320.617 102.667 320.913 101.48C321.507 99.105 322.101 96.6561 322.546 94.2815C322.991 91.9069 323.437 89.5322 323.808 87.1576C323.956 85.9703 324.179 84.7829 324.327 83.5956C324.475 82.4083 324.624 81.221 324.772 80.0337C324.995 77.659 325.218 75.2844 325.366 72.9098C325.44 71.7225 325.514 70.5351 325.589 69.3478L325.663 67.5668V66.6764V65.6374C325.811 59.7751 321.136 54.9516 315.274 54.8032C309.56 54.729 304.81 59.1072 304.514 64.747L304.439 64.9696Z" fill="#FFAA8C"/>
<path d="M255.165 121.589C255.165 121.589 257.911 130.42 256.204 137.544C255.165 138.286 253.533 138.657 252.271 138.36C252.271 138.36 253.978 130.494 251.232 121.589C252.494 121.07 253.83 121.07 255.165 121.589Z" fill="#35252F"/>
<path d="M254.943 137.47C252.156 137.47 249.897 135.211 249.897 132.424C249.897 129.637 252.156 127.378 254.943 127.378C257.73 127.378 259.989 129.637 259.989 132.424C259.989 135.211 257.73 137.47 254.943 137.47Z" fill="#35252F"/>
<path d="M255.165 135.986C257.169 135.837 258.653 134.13 258.579 132.127C258.431 130.123 256.724 128.639 254.72 128.713C252.717 128.862 251.232 130.569 251.307 132.572C251.455 134.576 253.236 136.134 255.165 135.986Z" fill="white"/>
<path d="M300.729 121.293C300.804 121.293 300.878 121.293 300.952 121.219C301.1 121.07 301.1 120.848 300.952 120.699C297.687 117.063 292.492 114.837 292.27 114.763C292.047 114.688 291.899 114.763 291.75 114.985C291.676 115.208 291.75 115.356 291.973 115.505C292.047 115.505 297.242 117.731 300.358 121.293C300.507 121.293 300.581 121.293 300.729 121.293Z" fill="#D0886F"/>
<path d="M299.913 116.617C300.061 116.617 300.21 116.469 300.284 116.321C300.358 116.098 300.21 115.95 299.987 115.875C299.839 115.801 295.683 114.911 292.863 115.059C292.64 115.059 292.492 115.282 292.492 115.43C292.492 115.653 292.715 115.801 292.863 115.801C295.535 115.653 299.764 116.617 299.764 116.617C299.913 116.617 299.913 116.617 299.913 116.617Z" fill="#D0886F"/>
<path d="M328.111 66.5279C328.037 71.4998 326.627 88.8643 323.881 98.066L299.764 93.6136C299.764 93.6136 302.584 74.7649 303.623 63.0401C303.92 59.2556 305.923 55.7678 309.114 53.6158C311.266 52.2059 314.086 51.2412 317.574 51.909C324.549 53.2448 326.998 59.8492 327.814 63.1886C328.037 64.3759 328.111 65.4148 328.111 66.5279Z" fill="#E14E10"/>
<path d="M323.882 98.437C324.03 98.437 324.178 98.3628 324.253 98.2144C328.705 84.1892 328.334 70.0898 328.334 69.9413C328.334 69.7187 328.186 69.5703 327.963 69.5703C327.74 69.5703 327.592 69.7187 327.592 69.9413C327.592 70.0898 327.963 84.0408 323.511 97.9917C323.436 98.2144 323.585 98.3628 323.733 98.437C323.807 98.437 323.807 98.437 323.882 98.437Z" fill="white"/>
<path d="M299.765 93.9842C299.913 93.9842 300.061 93.8358 300.136 93.6874C301.546 85.673 303.475 68.0116 303.475 67.8632C303.475 67.6406 303.327 67.4922 303.178 67.418C302.956 67.418 302.807 67.5664 302.733 67.7148C302.733 67.8632 300.804 85.5246 299.394 93.4647C299.319 93.7616 299.468 93.9842 299.765 93.9842C299.69 93.9842 299.765 93.9842 299.765 93.9842Z" fill="white"/>
<path d="M336.793 241.064H270.229C268.671 241.064 267.409 239.802 267.409 238.244C267.409 236.686 268.671 235.424 270.229 235.424H336.793C338.352 235.424 339.613 236.686 339.613 238.244C339.613 239.802 338.352 241.064 336.793 241.064Z" fill="#2196F3"/>
<path d="M264.07 284.104C263.922 284.104 263.847 284.104 263.699 284.104C262.141 283.882 261.102 282.472 261.25 280.913L273.42 190.38C273.643 188.971 274.83 187.932 276.24 187.932H330.56C331.97 187.932 333.157 188.971 333.38 190.38L345.327 280.988C345.55 282.546 344.437 283.956 342.878 284.179C341.32 284.401 339.91 283.288 339.687 281.73L328.037 193.646H278.615L266.816 281.804C266.667 283.14 265.48 284.104 264.07 284.104Z" fill="#FFD66B"/>
<path d="M291.972 190.751H327.295C338.5 190.751 350.448 184.666 352.155 173.609C354.455 158.842 355.049 144.52 354.381 131.385C353.639 116.544 346.07 102.741 334.345 93.5396C334.345 93.5396 343.101 138.509 336.719 166.634C333.009 182.663 291.972 190.751 291.972 190.751Z" fill="#FFD66B"/>
<path d="M199.585 139.622H284.7C284.923 139.622 285.072 139.473 285.072 139.251C285.072 136.579 282.92 134.501 280.322 134.501H199.659C199.436 134.501 199.288 134.65 199.288 134.873V139.325C199.214 139.473 199.436 139.622 199.585 139.622Z" fill="#2196F3"/>
<path d="M170.936 92.2659L181.547 137.236C181.844 138.423 182.883 139.313 184.145 139.313H249.596C251.302 139.313 252.564 137.681 252.193 136.048L241.581 91.0785C241.284 89.8912 240.245 89.0007 238.984 89.0007H173.533C171.826 89.0007 170.565 90.6333 170.936 92.2659Z" fill="#2196F3"/>
<path d="M205.379 114.336C206.047 117.898 209.461 120.718 212.948 120.718C216.436 120.718 218.811 117.824 218.143 114.336C217.475 110.774 214.061 107.954 210.574 107.954C207.086 107.954 204.711 110.774 205.379 114.336Z" fill="#FFD66B"/>
<path d="M236.614 89.3088L247.894 139.547H249.823C251.53 139.547 252.791 137.915 252.42 136.282L241.809 91.3124C241.512 90.1251 240.473 89.2346 239.211 89.2346H236.614V89.3088Z" fill="#2196F3"/>
<path d="M107.716 143.184V146.671C107.716 148.675 109.422 150.307 111.5 150.307H372.487C374.565 150.307 376.272 148.675 376.272 146.671V143.184C376.272 141.18 374.565 139.547 372.487 139.547H111.5C109.348 139.547 107.716 141.18 107.716 143.184Z" fill="#E14E10"/>
<path d="M122.112 159.138H354.307C359.056 159.138 362.841 155.279 362.841 150.604V150.233H113.504V150.604C113.578 155.279 117.363 159.138 122.112 159.138Z" fill="#E14E10"/>
<path d="M118.402 203.217H354.604V209.376H118.402V203.217Z" fill="#E14E10"/>
<path d="M365.883 285.216L335.458 159.138H346.144L376.569 285.216H365.883Z" fill="#E14E10"/>
<path d="M108.458 285.216L138.883 159.138H128.197L97.7722 285.216H108.458Z" fill="#E14E10"/>
<path d="M107.642 144.89H376.198V146.448H107.642V144.89Z" fill="#AD2F24"/>
<path d="M352.334 110.515L355.635 111.021L351.815 135.961L348.514 135.455L352.334 110.515Z" fill="#FAB623"/>
<path d="M352.336 110.533L355.601 111.052L354.859 108.529L354.488 107.194L353.746 108.307L352.336 110.533Z" fill="#FF8C64"/>
<path d="M348.776 133.68L352.077 134.185L351.796 136.019L348.495 135.514L348.776 133.68Z" fill="#35252F"/>
<path d="M348.478 136.951L351.372 137.396C351.52 137.396 351.594 137.322 351.594 137.174L351.817 135.912L348.478 135.393L348.255 136.654C348.255 136.803 348.329 136.951 348.478 136.951Z" fill="#EF452F"/>
<path d="M353.747 108.307L354.86 108.529L354.489 107.194L353.747 108.307Z" fill="#35252F"/>
<path d="M352.068 134.187L348.767 133.682L348.969 132.362L352.27 132.867L352.068 134.187Z" fill="#F68407"/>
<path d="M354.637 112.165L351.817 130.643C351.817 130.792 351.668 130.866 351.52 130.866C351.371 130.866 351.297 130.717 351.297 130.569L354.117 112.091C354.117 111.943 354.266 111.869 354.414 111.869C354.562 111.869 354.637 112.017 354.637 112.165Z" fill="#F68407"/>
<path d="M353.301 111.943L350.481 130.421C350.481 130.569 350.333 130.644 350.184 130.644C350.036 130.644 349.962 130.495 349.962 130.347L352.782 111.869C352.782 111.721 352.93 111.646 353.078 111.646C353.227 111.646 353.301 111.795 353.301 111.943Z" fill="#F68407"/>
<path d="M346.365 110.602L349.704 110.613L349.622 135.844L346.283 135.833L346.365 110.602Z" fill="#4F9D5C"/>
<path d="M346.325 110.607L349.665 110.681L348.552 108.232L348.032 107.045L347.438 108.232L346.325 110.607Z" fill="#FF8C64"/>
<path d="M346.253 134.051L349.592 134.062L349.586 135.917L346.247 135.906L346.253 134.051Z" fill="#35252F"/>
<path d="M346.474 137.322H349.368C349.516 137.322 349.59 137.248 349.59 137.099V135.838H346.251V137.099C346.251 137.248 346.325 137.322 346.474 137.322Z" fill="#EF452F"/>
<path d="M347.438 108.233H348.551L348.032 107.045L347.438 108.233Z" fill="#35252F"/>
<path d="M349.593 134.063L346.254 134.052L346.258 132.717L349.597 132.727L349.593 134.063Z" fill="#3C7341"/>
<path d="M348.849 111.868L348.775 130.569C348.775 130.717 348.626 130.791 348.552 130.791C348.404 130.791 348.329 130.643 348.329 130.569L348.404 111.868C348.404 111.72 348.552 111.646 348.626 111.646C348.7 111.646 348.849 111.72 348.849 111.868Z" fill="#3C7341"/>
<path d="M347.513 111.869L347.438 130.569C347.438 130.718 347.29 130.792 347.216 130.792C347.067 130.792 346.993 130.644 346.993 130.569L347.067 111.869C347.067 111.721 347.216 111.646 347.29 111.646C347.438 111.646 347.513 111.721 347.513 111.869Z" fill="#3C7341"/>
<path d="M340.55 110.986L343.856 110.517L347.406 135.497L344.099 135.967L340.55 110.986Z" fill="#E14E10"/>
<path d="M340.538 110.978L343.877 110.533L342.467 108.307L341.725 107.194L341.28 108.455L340.538 110.978Z" fill="#FF8C64"/>
<path d="M343.831 134.173L347.137 133.703L347.398 135.54L344.092 136.01L343.831 134.173Z" fill="#35252F"/>
<path d="M344.545 137.396L347.439 136.951C347.587 136.951 347.662 136.803 347.662 136.728L347.513 135.467L344.174 135.912L344.322 137.174C344.322 137.322 344.396 137.396 344.545 137.396Z" fill="#EF452F"/>
<path d="M341.28 108.455L342.467 108.307L341.725 107.194L341.28 108.455Z" fill="#35252F"/>
<path d="M347.159 133.65L343.852 134.12L343.664 132.797L346.971 132.328L347.159 133.65Z" fill="#AD2F24"/>
<path d="M343.209 111.869L345.806 130.347C345.806 130.495 345.732 130.644 345.584 130.644C345.435 130.644 345.287 130.569 345.287 130.421L342.69 111.943C342.69 111.795 342.764 111.646 342.912 111.646C343.061 111.646 343.209 111.721 343.209 111.869Z" fill="#AD2F24"/>
<path d="M341.947 112.091L344.545 130.569C344.545 130.717 344.471 130.866 344.322 130.866C344.174 130.866 344.025 130.791 344.025 130.643L341.428 112.165C341.428 112.017 341.502 111.869 341.651 111.869C341.799 111.794 341.873 111.943 341.947 112.091Z" fill="#AD2F24"/>
<path d="M339.424 120.625L339.647 121.961L339.795 123.222L340.018 125.077L340.166 126.265L340.463 128.194L340.611 129.381L340.834 131.237L340.982 132.424L341.205 134.353L341.353 135.541L341.65 137.47L341.799 138.583L341.947 139.622H355.082L355.23 138.583L355.379 137.47L355.601 135.541L355.75 134.353L355.972 132.424L356.121 131.237L356.417 129.381L356.566 128.194L356.788 126.265L356.937 125.077L357.159 123.222L357.308 121.961L357.531 120.625H339.424Z" fill="#EF452F"/>
<path d="M339.647 121.961L339.795 123.222H357.16L357.308 121.961H339.647Z" fill="#AD2F24"/>
<path d="M340.018 125.078L340.166 126.265H356.789L356.937 125.078H340.018Z" fill="#AD2F24"/>
<path d="M340.463 128.194L340.611 129.381H356.418L356.566 128.194H340.463Z" fill="#AD2F24"/>
<path d="M340.834 131.237L340.983 132.424H355.973L356.121 131.237H340.834Z" fill="#AD2F24"/>
<path d="M341.205 134.354L341.354 135.541H355.602L355.75 134.354H341.205Z" fill="#AD2F24"/>
<path d="M341.651 137.469L341.799 138.583H355.231L355.379 137.469H341.651Z" fill="#AD2F24"/>
<path d="M119.812 120.18H148.233V124.262H119.812V120.18Z" fill="#FAB623"/>
<path d="M119.366 136.209C122.261 139.623 130.498 139.697 133.169 139.623C133.689 139.623 133.985 139.623 133.985 139.623C133.985 139.623 145.116 140.365 148.604 136.209C150.534 133.834 149.495 130.347 148.159 127.749C147.862 127.156 147.491 126.562 147.194 126.043C146.526 124.93 146.007 124.262 146.007 124.262H121.964C121.964 124.262 120.851 125.746 119.812 127.675C118.55 130.347 117.437 133.834 119.366 136.209Z" fill="#FAB623"/>
<path d="M143.187 133.018C144.374 136.803 139.922 139.697 133.985 139.548C133.985 139.548 145.116 140.291 148.604 136.135C150.534 133.76 149.495 130.273 148.159 127.675C148.159 127.601 148.085 127.527 148.085 127.527C148.085 127.453 148.011 127.378 148.011 127.378C147.788 126.933 147.491 126.488 147.268 126.043C146.601 124.93 146.081 124.262 146.081 124.262H122.038C122.038 124.262 120.925 125.746 119.886 127.675H130.646C133.317 127.675 135.989 128.195 138.512 129.159C140.59 130.05 142.668 131.311 143.187 133.018Z" fill="#F68407"/>
<path d="M123.967 116.543C124.264 117.063 124.635 117.508 124.932 117.879C125.896 119.215 126.713 120.105 126.787 120.179H141.257C141.332 120.105 142.074 119.215 143.113 117.879C143.409 117.434 143.78 116.988 144.077 116.543C145.858 113.872 147.713 110.31 147.194 107.638C147.046 106.822 146.823 106.228 146.452 105.857C146.303 105.635 146.155 105.486 145.932 105.412C144.374 104.522 141.999 106.599 141.257 106.525C140.218 106.451 141.925 101.331 144.3 97.6945C146.526 94.281 147.936 89.8285 145.265 88.196C145.19 88.1218 145.042 88.0475 144.968 88.0475C144.894 87.9733 144.745 87.9733 144.671 87.8991C141.183 86.6376 139.922 91.3127 138.438 90.6448C136.953 89.9769 141.48 74.9128 134.43 74.9128C134.356 74.9128 134.208 74.9128 134.059 74.9128C133.911 74.9128 133.837 74.9128 133.688 74.9128C126.639 74.9128 131.165 90.0511 129.681 90.6448C128.197 91.3127 127.01 86.5634 123.448 87.8991C123.373 87.9733 123.225 87.9733 123.151 88.0475C123.077 88.1217 122.928 88.1218 122.854 88.196C120.108 89.8285 121.592 94.3552 123.819 97.6945C126.193 101.331 127.826 106.377 126.861 106.525C126.119 106.599 123.744 104.447 122.186 105.412C122.038 105.486 121.815 105.635 121.667 105.857C121.37 106.228 121.147 106.822 120.925 107.638C120.331 110.31 122.186 113.872 123.967 116.543Z" fill="#4F9D5C"/>
<path d="M133.688 74.9138V120.18H134.356V74.9138C134.282 74.9138 134.133 74.9138 133.985 74.9138C133.911 74.9138 133.762 74.9138 133.688 74.9138Z" fill="#3C7341"/>
<path d="M133.763 100.886L133.985 101.109L134.208 101.332L134.282 101.257L145.413 88.4196L145.116 88.197C145.042 88.1228 144.894 88.0486 144.819 88.0486L134.282 100.219L133.911 100.59L133.763 100.886Z" fill="#3C7341"/>
<path d="M133.762 119.437L133.985 119.66L134.207 119.883L134.282 119.808L146.377 105.857C146.229 105.635 146.081 105.486 145.858 105.412L134.282 118.769L133.91 119.14L133.762 119.437Z" fill="#3C7341"/>
<path d="M122.557 88.3454L133.689 101.183L133.763 101.257L133.985 101.035L134.208 100.812L133.985 100.515L133.614 100.144L123.077 87.9744C123.003 88.0486 122.854 88.0486 122.78 88.1228L122.557 88.3454Z" fill="#3C7341"/>
<path d="M121.518 105.783L133.614 119.734L133.688 119.808L133.911 119.586L134.134 119.363L133.911 119.066L133.54 118.695L121.964 105.338C121.889 105.486 121.741 105.635 121.518 105.783Z" fill="#3C7341"/>
<path opacity="0.2" d="M419.758 287.517C399.389 287.517 382.877 286.222 382.877 284.623C382.877 283.025 399.389 281.729 419.758 281.729C440.127 281.729 456.639 283.025 456.639 284.623C456.639 286.222 440.127 287.517 419.758 287.517Z" fill="#E14E10"/>
<path d="M393.34 272.008L387.626 186.299H453.745L447.957 272.008H393.34Z" fill="#EF452F"/>
<path d="M388.145 194.387L452.928 198.097L453.374 191.344H387.923L388.145 194.387Z" fill="#AD2F24"/>
<path d="M385.399 191.345H455.896C456.861 191.345 457.677 190.528 457.677 189.564V185.631C457.677 184.666 456.861 183.85 455.896 183.85H385.399C384.435 183.85 383.618 184.666 383.618 185.631V189.564C383.618 190.528 384.435 191.345 385.399 191.345Z" fill="#EF5F44"/>
<path d="M395.046 205.073L396.679 233.718H444.691L446.324 205.073H395.046Z" fill="#AD2F24"/>
<path d="M420.648 222.957C419.336 222.957 418.273 221.893 418.273 220.582C418.273 219.27 419.336 218.207 420.648 218.207C421.959 218.207 423.023 219.27 423.023 220.582C423.023 221.893 421.959 222.957 420.648 222.957Z" fill="#EF452F"/>
<path d="M397.272 240.47L398.757 266.517H442.539L444.023 240.47H397.272Z" fill="#AD2F24"/>
<path d="M420.648 256.796C419.336 256.796 418.273 255.733 418.273 254.421C418.273 253.11 419.336 252.047 420.648 252.047C421.959 252.047 423.022 253.11 423.022 254.421C423.022 255.733 421.959 256.796 420.648 256.796Z" fill="#EF452F"/>
<path d="M427.698 272.009C427.846 272.009 427.995 272.009 428.069 272.009C434.674 272.083 440.388 276.684 441.872 282.991L442.317 284.772H447.437L447.957 272.009H427.698Z" fill="#AD2F24"/>
<path d="M413.599 272.009C413.451 272.009 413.302 272.009 413.228 272.009C406.624 272.083 400.91 276.684 399.425 282.991L398.98 284.772H393.86L393.34 272.009H413.599Z" fill="#AD2F24"/>
<path d="M433.857 141.032C433.857 141.032 439.645 142.664 446.027 134.427C450.628 128.417 458.791 115.653 470.07 115.43C470.07 115.43 456.713 109.642 444.914 115.505C433.041 121.441 426.733 136.728 433.857 141.032Z" fill="#4F9D5C"/>
<path d="M430.369 164.927C430.518 164.927 430.666 164.779 430.666 164.63C430.666 164.556 430.295 156.541 431.854 147.488C433.338 139.103 436.751 128.12 444.988 123C445.137 122.926 445.211 122.703 445.063 122.555C444.988 122.406 444.766 122.332 444.617 122.48C440.907 124.781 437.864 128.417 435.49 133.389C433.635 137.322 432.15 141.997 431.26 147.414C429.627 156.541 430.073 164.63 430.073 164.704C430.073 164.779 430.221 164.927 430.369 164.927Z" fill="#3C7341"/>
<path d="M429.405 122.777C429.405 122.777 423.542 121.441 421.984 111.052C420.871 103.557 419.906 88.4188 410.185 82.7791C410.185 82.7791 424.73 84.189 432.15 95.0975C439.571 106.006 437.716 122.48 429.405 122.777Z" fill="#4F9D5C"/>
<path d="M421.39 165.595C421.539 165.595 421.613 165.521 421.687 165.372C421.761 165.298 425.62 154.612 428.44 141.478C430.072 133.76 431.111 126.71 431.334 120.477C431.705 112.685 430.889 106.229 429.033 101.331C428.959 101.183 428.811 101.109 428.662 101.183C428.514 101.257 428.44 101.406 428.514 101.554C432.67 112.611 430.443 129.308 427.846 141.329C425.026 154.464 421.168 165.075 421.168 165.15C421.093 165.298 421.168 165.521 421.316 165.521C421.316 165.595 421.316 165.595 421.39 165.595Z" fill="#3C7341"/>
<path d="M419.164 127.823C419.164 127.823 413.227 128.639 408.033 119.512C404.322 112.907 398.015 99.1789 386.883 97.3237C386.883 97.3237 400.983 93.4649 411.817 100.96C422.726 108.603 426.807 124.558 419.164 127.823Z" fill="#4F9D5C"/>
<path d="M418.273 165.594C418.421 165.594 418.57 165.52 418.57 165.372C418.57 165.298 420.573 155.205 420.573 143.184C420.573 136.134 419.98 129.752 418.718 124.261C417.16 117.434 414.563 111.942 411.075 107.935C410.927 107.787 410.778 107.787 410.63 107.935C410.481 108.084 410.481 108.232 410.63 108.381C418.421 117.211 420.054 132.127 419.98 143.184C419.906 155.131 417.976 165.149 417.976 165.223C417.902 165.372 418.05 165.52 418.273 165.594C418.199 165.594 418.273 165.594 418.273 165.594Z" fill="#3C7341"/>
<path d="M408.923 141.774C408.923 141.774 403.209 143.777 396.382 135.837C391.41 130.123 382.505 117.879 371.226 118.324C371.226 118.324 384.212 111.72 396.382 116.989C408.552 122.183 415.75 137.099 408.923 141.774Z" fill="#4F9D5C"/>
<path d="M414.489 165.595C414.637 165.595 414.786 165.446 414.786 165.298C414.786 165.224 414.934 158.322 412.856 149.788C411.595 144.817 409.888 140.216 407.662 136.208C404.842 131.162 401.28 127.007 397.05 123.89C396.902 123.816 396.753 123.816 396.605 123.964C396.531 124.113 396.531 124.261 396.679 124.41C406.103 131.459 410.333 142.219 412.262 150.011C414.34 158.471 414.192 165.224 414.192 165.298C414.192 165.446 414.266 165.595 414.489 165.595Z" fill="#3C7341"/>
<path d="M396.011 172.718C396.011 173.609 396.16 174.499 396.457 175.464C397.644 179.471 401.057 182.439 405.213 183.033C415.305 184.443 425.694 184.369 436.38 182.959C441.055 182.365 444.84 178.803 445.582 174.128C445.73 173.312 445.73 172.57 445.656 171.753C445.433 169.082 444.023 166.485 441.352 163.887H400.315C397.347 166.707 396.011 169.676 396.011 172.718Z" fill="#FFD66B"/>
<path d="M419.312 176.8C432.373 176.8 440.832 174.277 445.582 172.124C445.73 172.05 445.804 171.902 445.73 171.753C445.656 171.605 445.507 171.531 445.359 171.605C440.61 173.683 432.299 176.206 419.312 176.206C410.111 176.206 402.393 174.944 396.382 172.496C396.234 172.421 396.011 172.496 396.011 172.644C395.937 172.792 396.011 173.015 396.16 173.015C402.245 175.538 410.036 176.8 419.312 176.8Z" fill="#F68407"/>
<path d="M27.869 80.9243H32.7667V131.682H27.869V80.9243Z" fill="#F2B441"/>
<path d="M27.7948 83.3728V87.751L32.7667 89.2352V83.3728H27.7948Z" fill="#F28D32"/>
<path d="M3.60279 82.4822C21.3383 85.2279 39.1481 85.2279 56.8837 82.4822L44.2684 47.5306C34.9183 45.898 25.5681 45.898 16.2922 47.5306L3.60279 82.4822Z" fill="#E14E10"/>
<path d="M30.466 79.8109C38.5546 79.8109 46.569 79.3657 54.8802 78.5494C55.177 78.5494 55.3254 78.2526 55.3254 78.03C55.3254 77.7331 55.0286 77.5847 54.806 77.5847C38.4062 79.2915 22.8227 79.2915 5.82916 77.5847C5.53233 77.5847 5.3097 77.7331 5.3097 78.03C5.3097 78.3268 5.4581 78.5494 5.75493 78.5494C14.2146 79.3657 22.3774 79.8109 30.466 79.8109Z" fill="#AD2F24"/>
<path d="M47.9787 79.1436C48.0529 79.1436 48.0529 79.1436 48.1271 79.1436C48.424 79.0694 48.5724 78.7726 48.4982 78.5499L40.7064 47.3086C40.6322 47.0118 40.3353 46.8634 40.1127 46.9376C39.8159 47.0118 39.6675 47.3087 39.7417 47.5313L47.5334 78.7726C47.5334 78.9952 47.7561 79.1436 47.9787 79.1436Z" fill="#AD2F24"/>
<path d="M12.5073 79.1436C12.7299 79.1436 12.9525 78.9952 13.0267 78.7726L20.7443 47.5313C20.8185 47.2344 20.6701 47.0118 20.3732 46.9376C20.0764 46.8634 19.8538 47.0118 19.7796 47.3086L12.062 78.5499C11.9878 78.8468 12.1362 79.0694 12.433 79.1436C12.433 79.1436 12.4331 79.1436 12.5073 79.1436Z" fill="#AD2F24"/>
<path d="M30.2429 79.811C30.5397 79.811 30.7623 79.5884 30.7623 79.2916V46.863C30.7623 46.5661 30.5397 46.3435 30.2429 46.3435C29.946 46.3435 29.7234 46.5661 29.7234 46.863V79.3658C29.7976 79.5884 30.0202 79.811 30.2429 79.811Z" fill="#AD2F24"/>
<path d="M18.2225 126.636V131.682H42.3398V126.636L30.2441 123.816L18.2225 126.636Z" fill="#AD2F24"/>
<path d="M46.9397 125.003H46.0492V123.668L79.0715 123.742C80.1846 123.742 81.1494 124.187 81.8914 124.929C82.6335 125.671 83.0787 126.636 83.0787 127.749C83.0787 129.975 81.2977 131.682 79.0715 131.682L46.0492 131.608V130.495H46.9397V125.003Z" fill="#4F9D5C"/>
<path d="M46.7182 125.004V130.495L76.9948 130.569C78.4789 130.569 79.6663 129.308 79.6663 127.824C79.6663 127.081 79.3694 126.414 78.85 125.894C78.3305 125.375 77.6627 125.078 76.9206 125.078L46.7182 125.004Z" fill="white"/>
<path d="M46.7181 126.414V127.23L76.2526 127.305C76.4752 127.305 76.6979 127.082 76.6979 126.859C76.6979 126.637 76.4752 126.414 76.2526 126.414H46.7181Z" fill="#EAD6BF"/>
<path d="M46.7181 128.492V129.308L76.2526 129.382C76.4752 129.382 76.6979 129.16 76.6979 128.937C76.6979 128.714 76.4752 128.492 76.2526 128.492H46.7181Z" fill="#EAD6BF"/>
<path d="M49.908 117.064H49.0175V115.728L82.0398 115.802C83.1529 115.802 84.1176 116.247 84.8597 116.989C85.6018 117.731 86.047 118.696 86.047 119.809C86.047 122.035 84.266 123.742 82.0398 123.742L49.0175 123.668V122.555H49.908V117.064Z" fill="#EF452F"/>
<path d="M49.6857 117.063V122.555L79.9623 122.629C81.4464 122.629 82.6338 121.367 82.6338 119.883C82.6338 119.141 82.3369 118.473 81.8175 117.954C81.298 117.434 80.6302 117.137 79.8881 117.137L49.6857 117.063Z" fill="white"/>
<path d="M49.6866 118.474V119.29L79.2211 119.364C79.4437 119.364 79.6664 119.142 79.6664 118.919C79.6664 118.696 79.4437 118.474 79.2211 118.474H49.6866Z" fill="#EAD6BF"/>
<path d="M49.6866 120.552V121.368L79.2211 121.442C79.4437 121.442 79.6664 121.219 79.6664 120.997C79.6664 120.774 79.4437 120.552 79.2211 120.552H49.6866Z" fill="#EAD6BF"/>
<path d="M44.1946 109.124H43.3042V107.788L76.3264 107.862C77.4396 107.862 78.4042 108.307 79.1463 109.049C79.8884 109.791 80.3336 110.756 80.3336 111.869C80.3336 114.095 78.5527 115.802 76.3264 115.802L43.3042 115.728V114.615H44.1946V109.124Z" fill="#E14E10"/>
<path d="M43.9716 109.124V114.615L74.2482 114.689C75.7323 114.689 76.9197 113.428 76.9197 111.943C76.9197 111.201 76.6228 110.533 76.1034 110.014C75.5839 109.495 74.9161 109.198 74.174 109.198L43.9716 109.124Z" fill="white"/>
<path d="M43.9716 110.533V111.35L73.5061 111.424C73.7288 111.424 73.9514 111.201 73.9514 110.979C73.9514 110.756 73.7288 110.533 73.5061 110.533H43.9716Z" fill="#EAD6BF"/>
<path d="M43.9716 112.611V113.427L73.5061 113.501C73.7288 113.501 73.9514 113.279 73.9514 113.056C73.9514 112.833 73.7288 112.611 73.5061 112.611H43.9716Z" fill="#EAD6BF"/>
<path opacity="0.2" d="M46.7173 288.556C21.1026 288.556 0.337723 286.729 0.337723 284.475C0.337723 282.221 21.1026 280.394 46.7173 280.394C72.3321 280.394 93.0969 282.221 93.0969 284.475C93.0969 286.729 72.3321 288.556 46.7173 288.556Z" fill="#E14E10"/>
<path d="M6.27403 134.725L16.3662 284.624H77.1421L87.2343 134.725H6.27403Z" fill="#FAB623"/>
<path d="M6.94188 144.594L86.2695 149.195L86.8632 140.884H6.64503L6.94188 144.594Z" fill="#F68407"/>
<path d="M3.23192 140.884H90.2771C91.316 140.884 92.1323 140.067 92.1323 139.028V133.537C92.1323 132.498 91.316 131.682 90.2771 131.682H3.23192C2.19302 131.682 1.37673 132.498 1.37673 133.537V139.028C1.37673 140.067 2.19302 140.884 3.23192 140.884Z" fill="#EDC85A"/>
<path d="M15.3279 157.803L17.3315 192.829H76.1779L78.1815 157.803H15.3279Z" fill="#F68407"/>
<path d="M46.7174 179.768C45.078 179.768 43.7491 178.439 43.7491 176.8C43.7491 175.161 45.078 173.832 46.7174 173.832C48.3567 173.832 49.6857 175.161 49.6857 176.8C49.6857 178.439 48.3567 179.768 46.7174 179.768Z" fill="#FAB623"/>
<path d="M18.0734 201.066L19.9286 233.049H73.5805L75.4357 201.066H18.0734Z" fill="#F68407"/>
<path d="M46.7174 221.25C45.078 221.25 43.7491 219.921 43.7491 218.282C43.7491 216.643 45.078 215.314 46.7174 215.314C48.3567 215.314 49.6857 216.643 49.6857 218.282C49.6857 219.921 48.3567 221.25 46.7174 221.25Z" fill="#FAB623"/>
<path d="M20.4482 241.138L22.155 270.524H71.3545L72.9871 241.138H20.4482Z" fill="#F68407"/>
<path d="M46.7174 258.799C45.078 258.799 43.7491 257.47 43.7491 255.831C43.7491 254.191 45.078 252.863 46.7174 252.863C48.3567 252.863 49.6857 254.191 49.6857 255.831C49.6857 257.47 48.3567 258.799 46.7174 258.799Z" fill="#FAB623"/>
</svg>
