<svg width="132" height="107" viewBox="0 0 132 107" fill="none" xmlns="http://www.w3.org/2000/svg">
<g clip-path="url(#clip0_1_3767)">
<path d="M126.282 106.953H1.9695C0.99003 106.953 0.187012 106.149 0.187012 105.166C0.187012 104.184 0.988229 103.379 1.9695 103.379H126.282C127.262 103.379 128.065 104.182 128.065 105.166C128.063 106.149 127.262 106.953 126.282 106.953Z" fill="#968EAB"/>
<path d="M98.5965 32.6504C97.7142 31.7064 97.7898 30.2496 98.7675 29.3976L98.8773 29.302C99.855 28.4499 101.362 28.5221 102.244 29.4662C103.126 30.4103 103.051 31.867 102.073 32.719L101.963 32.8147C100.988 33.6685 99.4805 33.5945 98.5965 32.6504Z" fill="#0E254A"/>
<path d="M100.471 37.2318L98.1481 39.2589L91.5547 32.21L93.8773 30.1828C95.487 28.7784 97.7934 28.5925 99.5849 29.5673C100.037 29.8128 100.456 30.1305 100.824 30.524C101.733 31.4969 102.149 32.7334 102.088 33.9501C102.023 35.1631 101.479 36.3527 100.471 37.2318Z" fill="#F66438"/>
<path d="M98.3731 34.9881L96.0505 37.0153L91.5547 32.2083L93.8773 30.1811C95.487 28.7767 97.7934 28.5908 99.5849 29.5656C99.8928 30.2461 100.026 30.979 99.9882 31.7046C99.9234 32.9195 99.3796 34.109 98.3731 34.9881Z" fill="#FFAC3D"/>
<path d="M98.2706 39.2301C97.5702 39.8565 95.4996 38.8095 93.6469 36.8853C91.7942 34.961 90.8579 32.8924 91.5583 32.2642C92.1111 31.7678 93.5209 32.3183 95.0045 33.5223C95.3952 33.8419 95.7931 34.2065 96.1802 34.6072C96.6321 35.0766 97.03 35.5549 97.3631 36.0188C98.393 37.4557 98.7999 38.7554 98.2706 39.2301Z" fill="#323966"/>
<path d="M97.3614 36.0206C96.8248 36.6127 95.912 36.7824 95.172 36.378C94.3275 35.9177 94.0287 34.878 94.5058 34.0603C94.6336 33.8418 94.8047 33.6595 95.0027 33.5223C95.3934 33.8418 95.7913 34.2065 96.1784 34.6072C96.6322 35.0783 97.0301 35.5567 97.3614 36.0206Z" fill="white"/>
<path d="M110.323 55.4472L116.342 35.97L104.154 27.829L101.596 30.0096" stroke="#0E254A" stroke-width="5.2291" stroke-miterlimit="10"/>
<path d="M103.994 29.3922C104.822 29.3922 105.492 28.7441 105.492 27.9445C105.492 27.145 104.822 26.4968 103.994 26.4968C103.167 26.4968 102.496 27.145 102.496 27.9445C102.496 28.7441 103.167 29.3922 103.994 29.3922Z" fill="#0E254A"/>
<path d="M104.743 27.9446C104.743 28.3435 104.408 28.6684 103.994 28.6684C103.58 28.6684 103.245 28.3435 103.245 27.9446C103.245 27.5456 103.58 27.2207 103.994 27.2207C104.408 27.2207 104.743 27.5456 104.743 27.9446Z" fill="#323966"/>
<path d="M116.382 57.9148H100.876C100.876 56.209 102.255 54.8263 103.957 54.8263H113.301C115.003 54.8263 116.382 56.209 116.382 57.9148Z" fill="#FFAC3D"/>
<path d="M106.871 54.0555H104.073V54.9058H106.871V54.0555Z" fill="#0E254A"/>
<path d="M116.223 38.1958C117.382 38.1958 118.321 37.2882 118.321 36.1686C118.321 35.0491 117.382 34.1415 116.223 34.1415C115.065 34.1415 114.126 35.0491 114.126 36.1686C114.126 37.2882 115.065 38.1958 116.223 38.1958Z" fill="#0E254A"/>
<path d="M116.223 37.1813C116.803 37.1813 117.273 36.728 117.273 36.1687C117.273 35.6094 116.803 35.156 116.223 35.156C115.644 35.156 115.174 35.6094 115.174 36.1687C115.174 36.728 115.644 37.1813 116.223 37.1813Z" fill="#323966"/>
<path d="M125.19 53.3966H110.968V48.4633H125.19C125.791 48.4633 126.279 48.9524 126.279 49.5553V52.3063C126.279 52.9074 125.791 53.3966 125.19 53.3966Z" fill="#5E1F3F"/>
<path d="M120.012 53.3966H105.79V48.4633H120.012C120.613 48.4633 121.101 48.9524 121.101 49.5553V52.3063C121.099 52.9074 120.613 53.3966 120.012 53.3966Z" fill="#5E1F3F"/>
<path d="M119.308 52.7179H105.79V48.9542H119.308C119.823 48.9542 120.24 49.373 120.24 49.8893V51.7828C120.24 52.2991 119.823 52.7179 119.308 52.7179Z" fill="#E8EAEC"/>
<path d="M125.406 50.411H122.168V50.7684H125.406V50.411Z" fill="white"/>
<path d="M125.406 51.1746H122.168V51.532H125.406V51.1746Z" fill="white"/>
<path d="M127.498 44.6671H113.276V39.7338H127.498C128.099 39.7338 128.587 40.223 128.587 40.8259V43.5769C128.585 44.178 128.099 44.6671 127.498 44.6671Z" fill="#5E1F3F"/>
<path d="M122.318 44.6671H108.096V39.7338H122.318C122.919 39.7338 123.407 40.223 123.407 40.8259V43.5769C123.407 44.178 122.919 44.6671 122.318 44.6671Z" fill="#5E1F3F"/>
<path d="M121.794 44.1689H108.096V40.2247H121.794C122.309 40.2247 122.726 40.6435 122.726 41.1598V43.2339C122.726 43.7519 122.309 44.1689 121.794 44.1689Z" fill="#E8EAEC"/>
<path d="M128.049 41.2916H124.089V43.0444H128.049V41.2916Z" fill="#E8EAEC"/>
<path d="M127.712 41.6815H124.475V42.0389H127.712V41.6815Z" fill="#0E254A"/>
<path d="M127.712 42.2645H124.475V42.6219H127.712V42.2645Z" fill="#0E254A"/>
<path d="M126.227 58.0701H112.005V53.1367H126.227C126.828 53.1367 127.316 53.6259 127.316 54.2288V56.9798C127.314 57.5809 126.826 58.0701 126.227 58.0701Z" fill="#0E254A"/>
<path d="M121.047 58.0701H106.825V53.1367H121.047C121.648 53.1367 122.136 53.6259 122.136 54.2288V56.9798C122.136 57.5809 121.648 58.0701 121.047 58.0701Z" fill="#0E254A"/>
<path d="M120.343 57.3914H106.825V53.8082H120.343C120.858 53.8082 121.275 54.227 121.275 54.7433V56.4563C121.275 56.9726 120.858 57.3914 120.343 57.3914Z" fill="#E8EAEC"/>
<path d="M126.778 54.6946H122.818V56.4473H126.778V54.6946Z" fill="#E8EAEC"/>
<path d="M126.441 55.0845H123.204V55.4419H126.441V55.0845Z" fill="#0E254A"/>
<path d="M126.441 55.6675H123.204V56.0249H126.441V55.6675Z" fill="#0E254A"/>
<path d="M109.111 44.6311V48.4669H125.454C126.511 48.4669 127.368 47.6077 127.368 46.5481C127.368 46.0192 127.154 45.5391 126.808 45.1907C126.461 44.8441 125.982 44.6293 125.454 44.6293H109.111V44.6311Z" fill="#D04234"/>
<path d="M107.214 44.6311V48.4669H120.968C122.024 48.4669 122.881 47.6077 122.881 46.5481C122.881 46.0192 122.667 45.5391 122.322 45.1907C121.974 44.8441 121.495 44.6293 120.968 44.6293H107.214V44.6311Z" fill="#FA7C50"/>
<path d="M107.214 45.2881V47.7467H120.451C121.128 47.7467 121.677 47.1961 121.677 46.5174C121.677 46.178 121.54 45.8711 121.319 45.6473C121.095 45.4253 120.789 45.2881 120.451 45.2881H107.214Z" fill="#E8EAEC"/>
<path d="M108.094 40.8042H122.253" stroke="#968EAB" stroke-width="1.4382" stroke-miterlimit="10"/>
<path d="M108.094 41.6273H122.253" stroke="#968EAB" stroke-width="1.4382" stroke-miterlimit="10"/>
<path d="M108.094 42.4486H122.253" stroke="#968EAB" stroke-width="1.4382" stroke-miterlimit="10"/>
<path d="M108.094 43.2719H122.253" stroke="#968EAB" stroke-width="1.4382" stroke-miterlimit="10"/>
<path d="M105.779 49.6746H120.02" stroke="#968EAB" stroke-width="1.4382" stroke-miterlimit="10"/>
<path d="M105.779 50.4977H120.02" stroke="#968EAB" stroke-width="1.4382" stroke-miterlimit="10"/>
<path d="M105.779 51.319H120.02" stroke="#968EAB" stroke-width="1.4382" stroke-miterlimit="10"/>
<path d="M105.779 52.1421H120.02" stroke="#968EAB" stroke-width="1.4382" stroke-miterlimit="10"/>
<path d="M106.857 54.3914H121.099" stroke="#968EAB" stroke-width="1.4382" stroke-miterlimit="10"/>
<path d="M106.857 55.2145H121.099" stroke="#968EAB" stroke-width="1.4382" stroke-miterlimit="10"/>
<path d="M106.857 55.8553H121.099" stroke="#968EAB" stroke-width="1.4382" stroke-miterlimit="10"/>
<path d="M106.857 56.6766H121.099" stroke="#968EAB" stroke-width="1.4382" stroke-miterlimit="10"/>
<path d="M30.8529 61.9999H26.71V107.001H30.8529V61.9999Z" fill="#122F51"/>
<path d="M69.8695 75.067L45.1397 76.9281L38.2781 42.01L54.8894 41.9522C59.5437 41.936 63.5695 45.196 64.5328 49.7611L69.8695 75.067Z" fill="#2166B5"/>
<path d="M40.111 75.2945L35.9969 44.7393C35.8132 43.3782 36.7747 42.1146 38.1322 41.9305C39.4898 41.7464 40.7501 42.7103 40.9338 44.0714L45.0479 74.6266C45.2316 75.9876 44.2701 77.2512 42.9125 77.4353C41.555 77.6194 40.2928 76.6555 40.111 75.2945Z" fill="#347DD0"/>
<path d="M57.095 79.4805H54.198V96.6146H57.095V79.4805Z" fill="#4E567A"/>
<path d="M57.095 80.4769V84.3489L54.198 83.2243V80.6033C54.9236 80.569 56.319 80.5112 57.095 80.4769Z" fill="#0E254A"/>
<path d="M62.3595 80.865H49.4122C48.6992 80.865 48.1177 80.2802 48.1177 79.5672C48.1177 78.8523 48.701 78.2693 49.4122 78.2693H62.3595C63.0725 78.2693 63.6541 78.8541 63.6541 79.5672C63.6541 80.2802 63.0725 80.865 62.3595 80.865Z" fill="#283154"/>
<path d="M68.6972 79.3072H53.8161C52.0354 79.3072 50.5789 77.8469 50.5789 76.0616C50.5789 74.2764 52.0354 72.816 53.8161 72.816H68.6972C70.4779 72.816 71.9345 74.2764 71.9345 76.0616C71.9345 77.8469 70.4779 79.3072 68.6972 79.3072Z" fill="#2166B5"/>
<path d="M55.6203 79.3939H43.7173C41.9366 79.3939 40.48 77.9336 40.48 76.1483C40.48 74.363 41.9366 72.9027 43.7173 72.9027H55.6203C57.401 72.9027 58.8576 74.363 58.8576 76.1483C58.8576 77.9336 57.401 79.3939 55.6203 79.3939Z" fill="#347DD0"/>
<path d="M67.9267 102.328H66.1136C66.1136 100.156 64.351 98.3909 62.1868 98.3909H48.9802C46.8142 98.3909 45.0533 100.158 45.0533 102.328H43.2402C43.2402 99.1544 45.8149 96.5731 48.9802 96.5731H62.1868C65.352 96.5713 67.9267 99.1544 67.9267 102.328Z" fill="#0E254A"/>
<path d="M57.7413 93.8456H53.512V96.6146H57.7413V93.8456Z" fill="#0E254A"/>
<path d="M45.5395 104.439C45.7306 103.628 45.2296 102.815 44.4206 102.623C43.6116 102.432 42.8008 102.934 42.6098 103.745C42.4188 104.556 42.9198 105.369 43.7288 105.561C44.5378 105.752 45.3485 105.25 45.5395 104.439Z" fill="#0E254A"/>
<path d="M46.2488 103.951H42.1274V103.492C42.1274 102.395 43.0151 101.507 44.108 101.507H44.2664C45.3611 101.507 46.247 102.397 46.247 103.492V103.951H46.2488Z" fill="#323966"/>
<path d="M68.5688 104.44C68.7599 103.629 68.2589 102.816 67.4499 102.625C66.6408 102.433 65.8301 102.935 65.6391 103.746C65.4481 104.558 65.9491 105.37 66.7581 105.562C67.5671 105.753 68.3778 105.251 68.5688 104.44Z" fill="#0E254A"/>
<path d="M69.2771 103.951H65.1558V103.492C65.1558 102.395 66.0434 101.507 67.1363 101.507H67.2947C68.3894 101.507 69.2753 102.397 69.2753 103.492V103.951H69.2771Z" fill="#323966"/>
<path d="M56.913 97.1345H54.5129V102.586H56.913V97.1345Z" fill="#0E254A"/>
<path d="M57.2251 104.439C57.4161 103.628 56.9151 102.816 56.1061 102.624C55.2971 102.432 54.4864 102.935 54.2954 103.746C54.1043 104.557 54.6053 105.37 55.4143 105.561C56.2234 105.753 57.0341 105.251 57.2251 104.439Z" fill="#0E254A"/>
<path d="M57.9338 103.951H53.8125V103.492C53.8125 102.395 54.7001 101.507 55.793 101.507H55.9515C57.0462 101.507 57.932 102.397 57.932 103.492V103.951H57.9338Z" fill="#323966"/>
<path d="M73.6182 102.341L84.3959 101.934C85.0387 101.911 85.5392 101.368 85.5158 100.723C85.4978 100.227 85.1683 99.7971 84.6948 99.6509L79.2915 97.9866L73.4688 98.3494L73.6182 102.341Z" fill="#968EAB"/>
<path d="M84.6228 102.225L73.7155 102.718L73.6794 101.934L85.3682 101.407C85.388 101.839 85.0549 102.207 84.6228 102.225Z" fill="#0E254A"/>
<path d="M79.2302 99.5732L80.4348 98.1598" stroke="#0E254A" stroke-width="1.4382" stroke-miterlimit="10" stroke-linecap="round"/>
<path d="M80.1755 99.9234L81.3801 98.51" stroke="#0E254A" stroke-width="1.4382" stroke-miterlimit="10" stroke-linecap="round"/>
<path d="M81.0864 100.407L82.4422 98.806" stroke="#0E254A" stroke-width="1.4382" stroke-miterlimit="10" stroke-linecap="round"/>
<path d="M73.0419 98.5083C73.6685 87.961 73.4993 78.2098 72.68 76.235C71.8392 75.0093 66.7924 71.993 61.8213 69.7564L64.6138 63.5089C68.1032 65.0758 76.4485 69.121 78.5964 72.8143C79.5039 74.3721 80.3717 77.4155 79.9468 88.1704C79.7236 93.8042 79.4499 98.2159 79.4499 98.2159L73.0419 98.5083Z" fill="#0E254A"/>
<path d="M65.2369 67.6769C65.2369 68.8575 64.8173 69.9405 64.1206 70.7853C63.2293 71.8684 61.8771 72.5579 60.3665 72.5579H52.1815C51.9384 72.5579 51.7008 72.5399 51.4667 72.5038C50.8654 72.4189 50.3018 72.2186 49.7941 71.9298C49.704 71.881 49.6158 71.8251 49.5294 71.7691C48.1952 70.899 47.313 69.3918 47.313 67.6769L47.4606 64.8754L65.0946 64.9205L65.2369 67.6769Z" fill="#0E254A"/>
<path d="M60.1541 100.479L70.2386 104.312C70.84 104.541 71.5115 104.236 71.7402 103.633C71.9149 103.169 71.7798 102.644 71.3999 102.324L67.0697 98.6833L61.5656 96.7446L60.1541 100.479Z" fill="#968EAB"/>
<path d="M70.334 104.669L60.0964 100.866L60.3683 100.129L71.3405 104.205C71.1893 104.613 70.7391 104.819 70.334 104.669Z" fill="#0E254A"/>
<path d="M68.4615 87.8129C68.3193 93.398 67.8277 98.5046 67.8061 98.7176L64.1907 98.3638L61.0111 98.0552C61.9329 88.535 61.8915 78.9571 60.9301 76.9137C59.8174 75.8613 55.489 73.9461 51.4649 72.502C50.8977 72.2998 50.336 72.1066 49.7922 71.9279C49.6968 71.8936 49.6014 71.863 49.5042 71.8323L49.5276 71.7673C49.5276 71.7673 52.8639 65.8916 59.8912 67.9134C61.373 68.3394 62.5883 69.7492 64.1187 70.7835C64.9109 71.316 65.5861 71.8629 66.0795 72.4063C67.4856 73.9551 68.7442 76.892 68.4615 87.8129Z" fill="#122F51"/>
<path d="M66.0508 99.7736L67.7342 98.9956" stroke="#0E254A" stroke-width="1.4382" stroke-miterlimit="10" stroke-linecap="round"/>
<path d="M66.762 100.488L68.4454 99.7086" stroke="#0E254A" stroke-width="1.4382" stroke-miterlimit="10" stroke-linecap="round"/>
<path d="M67.3884 101.31L69.2879 100.423" stroke="#0E254A" stroke-width="1.4382" stroke-miterlimit="10" stroke-linecap="round"/>
<path d="M64.1909 98.3638L61.0112 98.0552C61.9331 88.535 61.8916 78.9571 60.9302 76.9137C59.8175 75.8613 55.4891 73.9461 51.465 72.502C50.8636 72.4171 50.3001 72.2168 49.7924 71.9279C49.6969 71.8936 49.6015 71.863 49.5043 71.8323L49.5277 71.7673C48.1935 70.8972 47.3113 69.39 47.3113 67.6751L47.4607 65.0703L50.2731 65.4566C50.2065 65.6588 49.8248 67.648 50.5197 68.8412C50.7142 69.1806 50.9969 69.4567 51.3984 69.6102C52.4985 70.0308 56.6864 71.0597 60.0191 72.5543C62.1743 73.5219 63.973 74.688 64.3457 76.0147C65.2225 79.134 64.3331 95.8168 64.1909 98.3638Z" fill="#0E254A"/>
<path d="M101.333 57.6946H84.3796C83.2705 57.6946 82.5377 56.5393 83.0076 55.532L88.9204 42.8854C89.4354 41.7825 90.5409 41.0785 91.7562 41.0785H107.365C108.173 41.0785 108.708 41.9215 108.364 42.6562L101.333 57.6946Z" fill="#AFAAC4"/>
<path d="M84.4427 57.7378H72.3542C71.8663 57.7378 71.4666 57.3371 71.4666 56.8479C71.4666 56.3587 71.8663 55.958 72.3542 55.958H84.4427C84.9306 55.958 85.3303 56.3587 85.3303 56.8479C85.3303 57.3371 84.9306 57.7378 84.4427 57.7378Z" fill="#AFAAC4"/>
<path d="M80.098 56.5482H78.3713V57.0681H80.098V56.5482Z" fill="#0E254A"/>
<path d="M77.8546 56.5482H76.6033V57.0681H77.8546V56.5482Z" fill="#0E254A"/>
<path d="M101.077 57.6946H84.0843C83.4739 57.6946 83.0706 57.0592 83.3299 56.505L89.6982 42.8854C90.2132 41.7825 91.3187 41.0785 92.534 41.0785H108.142C108.951 41.0785 109.486 41.9215 109.142 42.6562L102.548 56.7577C102.28 57.3281 101.707 57.6946 101.077 57.6946Z" fill="#827C91"/>
<path d="M97.3649 50.3568C96.9616 51.3009 96.209 51.8858 95.6832 51.6601C95.1575 51.4345 95.0566 50.4868 95.46 49.5409C95.8633 48.5968 96.6159 48.012 97.1416 48.2376C97.6674 48.4633 97.7682 49.4127 97.3649 50.3568Z" fill="white"/>
<path d="M60.0838 34.9303L58.7677 35.0314C57.5595 35.1252 56.2416 32.1342 56.1479 30.9229L55.6726 24.7169C55.579 23.5057 56.4918 22.4389 57.7 22.345L59.0161 22.2439C60.2243 22.1501 61.2883 23.0653 61.382 24.2765L61.8573 30.4825C61.9509 31.6937 61.2919 34.8364 60.0838 34.9303Z" fill="#F7AC92"/>
<path d="M69.8264 15.8629C69.8282 16.0037 69.8246 16.1463 69.821 16.2871C69.794 16.9676 69.6967 17.6355 69.5347 18.2727C68.8415 21.0056 66.9708 23.2711 64.4861 24.4805C63.2528 25.0834 61.8682 25.4246 60.4044 25.4336C58.0332 25.4498 56.067 26.5257 54.398 25.096C53.8596 24.6357 53.3735 24.1195 52.9522 23.5509C52.7865 23.327 52.6299 23.0996 52.4841 22.8649C51.5964 21.428 50.869 17.7998 50.8564 15.9892C50.8222 10.8808 54.8103 6.68747 59.8463 6.42573C59.9903 6.41851 60.1343 6.4149 60.2784 6.4149C63.4706 6.39323 66.3046 7.95466 68.0403 10.3699C68.0439 10.3735 68.0439 10.3735 68.0439 10.3735C68.5516 11.0829 68.9657 11.8663 69.2682 12.7039C69.6211 13.6895 69.8192 14.7545 69.8264 15.8629Z" fill="#0C1640"/>
<path d="M57.5237 18.65C57.5273 18.8467 57.4984 19.0381 57.4318 19.2168C57.358 19.4298 57.2374 19.6608 57.0789 19.8287C56.7927 20.1283 56.3984 20.354 55.9518 20.363L54.994 20.3865L54.2594 20.4063L54.2 18.2185H54.2018L54.1891 17.8142L54.1801 17.5001L54.1747 17.2131L54.1711 17.1391H54.1747L55.8654 17.0957C56.2921 17.0849 56.6846 17.2402 56.9817 17.5037C57.1618 17.6626 57.304 17.8665 57.3994 18.0904C57.4786 18.2637 57.5201 18.4496 57.5237 18.65Z" fill="#FFC9C0"/>
<path d="M69.0505 16.8304L69.1405 20.3684L69.1549 20.8973C69.1657 21.2457 69.1477 21.5941 69.1099 21.9298C68.7462 25.0888 66.3533 27.6773 63.2223 28.3127C63.1287 28.3362 63.0314 28.3506 62.936 28.3633C62.5993 28.4246 62.259 28.4535 61.9079 28.4643C61.5676 28.4752 61.2364 28.4571 60.9069 28.421C60.2623 28.3524 59.6429 28.2008 59.0578 27.977C59.0578 27.977 59.056 27.977 59.0524 27.9752C56.5083 27.0004 54.6268 24.6754 54.3225 21.8793C54.3135 21.7944 54.3045 21.7132 54.3009 21.6284C54.2883 21.5309 54.2865 21.4298 54.2829 21.3287L54.2793 21.2764L54.2721 21.0363L54.2577 20.4045L54.1982 18.2384L54.2 18.2167V18.2149L54.191 17.8124L54.182 17.4983L54.1766 17.2113V17.1373C54.1676 16.6372 54.2306 16.1462 54.3405 15.6733C54.4143 15.343 54.5115 15.018 54.6232 14.704C54.6376 14.6516 54.6538 14.6083 54.67 14.5614C54.7618 14.3032 54.8734 14.0469 54.9941 13.8032C54.9941 13.8014 54.9959 13.7978 54.9959 13.7978C55.4586 12.8664 56.1176 12.0396 56.917 11.3771C57.0772 11.2454 57.2429 11.1172 57.4121 10.9981C58.5914 10.1767 60.0102 9.67491 61.546 9.637C63.5986 9.58465 65.5017 10.3645 66.8881 11.6714C67.6299 12.3681 68.1484 13.2147 68.5499 14.1624C68.7048 14.5234 68.8164 14.8989 68.892 15.2852C68.9911 15.7798 69.0397 16.2979 69.0505 16.8304Z" fill="#FFCCB4"/>
<path d="M54.9382 18.1896L54.9958 20.3864L55.0318 21.8684L54.4503 21.8846C54.4071 21.8846 54.3656 21.8865 54.3242 21.881C53.3502 21.8395 52.5543 21.0128 52.5273 20.038C52.5129 19.5326 52.7128 19.0957 53.0423 18.7492C53.3376 18.4405 53.7445 18.2582 54.1982 18.2167H54.2C54.2522 18.2076 54.2972 18.204 54.3512 18.2058L54.9382 18.1896Z" fill="#FFC9C0"/>
<path d="M61.7026 28.4553C61.7026 28.4553 60.3865 28.6449 59.0595 27.9788C59.0595 27.9788 59.0577 27.9788 59.0541 27.977C56.51 27.0022 54.6285 24.6772 54.3242 21.8811C53.3502 21.8396 52.5543 21.0128 52.5273 20.0381C52.5129 19.5326 52.7128 19.0958 53.0423 18.7492C53.3376 18.4405 53.7445 18.2582 54.1982 18.2167V18.2149L54.1892 17.8124L54.1802 17.4983L54.1748 17.2113L54.1712 17.1372H54.1748C54.1658 16.6372 54.2288 16.1462 54.3386 15.6733C55.2947 15.0361 56.3048 14.852 56.9817 16.0614C56.9817 16.0614 56.9673 16.6336 56.9836 17.5019C56.9944 18.1517 57.0196 18.9658 57.079 19.8287C57.1996 21.6013 57.4571 23.5743 58.0044 24.7404C59.1693 27.2278 61.7026 28.4553 61.7026 28.4553Z" fill="#F7AC92"/>
<path d="M68.5356 17.1246L65.653 17.3467C65.572 17.3521 65.5017 17.2925 65.4963 17.2113L65.4549 16.6643C65.4495 16.5831 65.5089 16.5127 65.59 16.5073L68.4726 16.2853C68.5536 16.2798 68.6238 16.3394 68.6292 16.4206L68.6706 16.9676C68.676 17.0488 68.6166 17.1192 68.5356 17.1246Z" fill="#0C1640"/>
<path d="M62.8495 17.5632L59.9669 17.7853C59.8859 17.7907 59.8157 17.7311 59.8103 17.6499L59.7689 17.1029C59.7635 17.0217 59.8229 16.9513 59.9039 16.9459L62.7865 16.7239C62.8675 16.7184 62.9378 16.778 62.9432 16.8592L62.9846 17.4062C62.99 17.4874 62.9288 17.5578 62.8495 17.5632Z" fill="#0C1640"/>
<path d="M65.8347 21.4208C65.8365 21.4316 65.7897 21.4226 65.7897 21.4226C65.8077 21.7998 65.5052 22.1248 64.6968 22.1627L64.3745 19.2023C65.318 20.2294 65.7285 20.8088 65.8347 21.4208Z" fill="#F7AC92"/>
<path d="M67.1436 12.5468C67.1436 12.5468 63.6003 15.1354 59.3601 15.7816C56.6 16.204 55.2298 20.7168 55.255 20.4514C55.282 20.1861 53.8272 17.816 53.8542 17.5506C53.8812 17.2853 53.1952 8.04308 60.9283 8.90051C68.6632 9.75794 69.2214 14.8917 69.2214 14.8917L67.1436 12.5468Z" fill="#0C1640"/>
<path d="M64.4754 7.43298L71.3983 10.9854C71.3983 10.9854 69.5384 12.6407 67.7469 12.0126C63.397 10.4854 64.4754 7.43298 64.4754 7.43298Z" fill="#0C1640"/>
<path d="M66.8574 23.0743L63.1052 23.2801C63.1052 23.2801 63.6832 25.0744 65.2136 24.8704C66.6594 24.6773 66.8574 23.0743 66.8574 23.0743Z" fill="white"/>
<path d="M48.1539 34.3671C48.0765 35.5332 47.9847 36.5315 47.8947 37.4683C47.837 38.0821 47.7794 38.6705 47.7254 39.259C47.5742 40.9468 47.4679 42.6454 47.5166 45.0408L47.7398 64.9223C47.747 64.9259 66.3335 64.8194 66.3335 64.8194C66.3335 64.8194 66.3749 64.1588 66.4433 63.0432C66.78 57.4275 67.583 40.463 67.3651 37.7517C67.3309 37.3366 67.4138 36.4466 67.3111 36.0531C67.1743 35.5206 67.0321 35.3148 66.7944 34.8347C66.1102 33.4285 65.0605 32.2515 63.9982 31.441C63.7174 31.228 63.4383 31.0439 63.161 30.8815C63.035 30.8075 62.9053 30.7407 62.7811 30.6775C62.7685 30.6703 62.7811 29.4861 62.7811 29.4861L61.2039 29.5962L59.317 33.9899L56.9277 29.7226L56.1013 29.5385L54.9346 29.3435L54.8193 29.9753C54.7743 29.9753 54.6573 29.9988 54.4826 30.0439H54.4808C53.4041 30.3056 50.1993 31.3237 48.8075 32.9375C48.4312 33.3707 48.1881 33.8491 48.1539 34.3671Z" fill="#DF3A37"/>
<path d="M82.3361 3.29019C82.2947 3.31185 79.2969 3.4689 79.2393 4.05736C79.1438 5.03754 79.1816 6.16574 79.3473 7.1748L79.6948 9.60629C79.6948 9.60629 81.9562 10.0756 82.093 10.0666C84.007 9.94204 83.4398 5.43467 83.4398 5.43467C83.4398 5.43467 83.2778 2.81725 82.3361 3.29019Z" fill="#F7AC92"/>
<path d="M80.5842 5.25232L79.9415 0.788275C79.8947 0.461549 79.5958 0.234105 79.2771 0.281038C78.9584 0.327971 78.7351 0.633035 78.7838 0.959761L79.4265 5.42381C79.4733 5.75054 79.7722 5.97798 80.0909 5.93105C80.4096 5.88231 80.6311 5.57725 80.5842 5.25232Z" fill="#F7AC92"/>
<path d="M81.8176 4.09711L81.3008 0.512152C81.254 0.185426 80.9552 -0.0420184 80.6365 0.00491459C80.3178 0.0518476 80.0945 0.356912 80.1431 0.683638L80.6599 4.2686C80.7067 4.59532 81.0056 4.82277 81.3243 4.77583C81.6411 4.7289 81.8644 4.42384 81.8176 4.09711Z" fill="#F7AC92"/>
<path d="M83.4327 5.62063L82.8223 1.37861C82.7755 1.05188 82.4766 0.824437 82.1579 0.87137C81.8393 0.918303 81.616 1.22337 81.6646 1.55009L82.275 5.79211C82.3218 6.11884 82.6207 6.34628 82.9394 6.29935C83.258 6.25242 83.4795 5.94735 83.4327 5.62063Z" fill="#F7AC92"/>
<path d="M80.6652 8.1333L78.6414 4.11873C78.4938 3.8263 78.1391 3.70896 77.8528 3.85879C77.5647 4.01042 77.4531 4.36964 77.6008 4.66568L79.6245 8.68025C79.7721 8.97268 80.1268 9.09001 80.4131 8.94019C80.6994 8.78856 80.8128 8.42573 80.6652 8.1333Z" fill="#F7AC92"/>
<path d="M62.502 32.5168L65.3899 37.3148L65.57 37.6163C65.669 37.5567 66.3154 37.1632 67.2949 36.5097C70.3071 34.4952 76.4665 30.0185 79.4806 25.2314C81.0524 22.7367 82.0265 19.733 82.6314 17.0091C82.635 17.0037 82.635 16.9982 82.635 16.9928C83.0779 14.9873 83.3228 13.1335 83.4596 11.7453C83.6001 10.3319 83.6253 9.40231 83.6361 9.28498L83.1212 9.26332L79.6264 9.12432L79.1223 9.10266C79.1205 9.12974 79.0052 9.98897 78.7424 11.3103C78.2022 14.0234 77.0337 18.677 74.9109 22.0471C73.6074 24.1176 70.705 26.5708 67.3759 29.1286C66.0507 30.1485 64.8246 31.0005 63.9333 31.5926C63.0637 32.1774 62.5146 32.5096 62.502 32.5168Z" fill="#DF3A37"/>
<path d="M35.682 11.7021C35.7288 11.7129 38.8005 11.1678 38.9949 11.74C39.319 12.6913 39.5405 13.8177 39.6071 14.8574L39.7331 16.8485C39.7331 16.8485 37.7094 17.8738 37.5671 17.8973C35.601 18.2204 35.1311 13.5632 35.1311 13.5632C35.1311 13.5632 34.6197 11.4512 35.682 11.7021Z" fill="#F7AC92"/>
<path d="M37.9435 13.6354L37.497 8.26336C37.488 8.14603 37.5744 8.04314 37.6914 8.03411L38.4818 7.96732C38.5989 7.95829 38.7015 8.04494 38.7105 8.16227L39.157 13.5343C39.166 13.6516 39.0796 13.7545 38.9626 13.7635L38.1722 13.8303C38.0551 13.8394 37.9525 13.7509 37.9435 13.6354Z" fill="#F7AC92"/>
<path d="M36.7318 12.8141L35.7757 8.43309C35.7505 8.31937 35.8243 8.20564 35.9377 8.18037L36.7137 8.01069C36.8272 7.98542 36.9406 8.05943 36.9658 8.17315L37.9219 12.5542C37.9471 12.6679 37.8733 12.7816 37.7598 12.8069L36.9838 12.9766C36.8686 13 36.7552 12.9278 36.7318 12.8141Z" fill="#F7AC92"/>
<path d="M35.4858 14.4766L34.2992 9.45298C34.2722 9.33926 34.3424 9.22373 34.4559 9.19666L35.2283 9.01434C35.3417 8.98726 35.4569 9.05766 35.484 9.17139L36.6705 14.195C36.6975 14.3087 36.6273 14.4243 36.5138 14.4513L35.7414 14.6355C35.628 14.6607 35.5128 14.5903 35.4858 14.4766Z" fill="#F7AC92"/>
<path d="M38.3953 16.5019L39.7115 11.2761C39.7403 11.1624 39.8555 11.0938 39.9689 11.1227L40.7377 11.3176C40.8512 11.3465 40.9196 11.462 40.8908 11.5758L39.5746 16.8034C39.5458 16.9171 39.4306 16.9857 39.3171 16.9568L38.5483 16.7619C38.4367 16.7312 38.3683 16.6138 38.3953 16.5019Z" fill="#F7AC92"/>
<path d="M33.3377 26.1953C33.2602 28.4535 33.4781 30.8381 34.2613 33.0403C35.9268 37.7354 40.284 39.0983 43.5842 39.4268C44.2126 39.49 44.805 39.5134 45.3325 39.517C46.1373 39.5225 46.9242 39.4791 47.6642 39.4142C48.2511 39.36 48.8057 39.2932 49.3188 39.2156C51.1535 38.943 52.4355 38.582 52.5219 38.5549L50.851 32.6612C50.824 32.6684 49.967 32.8923 48.7445 33.0908C45.8925 33.5475 41.042 33.8652 40.0193 30.9861C38.6653 27.1628 39.1496 22.1157 39.5872 19.3196C39.7852 18.0614 39.9743 17.2636 39.9797 17.2365L39.2811 17.0741L35.7557 16.2509L35.3308 16.1534C35.3038 16.269 34.9941 17.1029 34.625 18.4062C34.0939 20.2817 33.4439 23.1266 33.3377 26.1953Z" fill="#DF3A37"/>
<path d="M47.4102 63.0883L47.3958 64.1713L47.3904 64.9475L57.9592 64.9042L60.8112 64.9403L66.436 64.9439V63.3337L60.831 63.2615L57.9791 63.2236L47.6262 63.0919L47.4102 63.0883Z" fill="#0C1640"/>
<path d="M60.8304 63.229L57.9788 63.1956L57.9586 64.9247L60.8103 64.9581L60.8304 63.229Z" fill="#68334F"/>
<path d="M57.0412 29.5221L56.33 32.0493L54.4106 30.2225L54.7365 29.2856L57.0412 29.5221Z" fill="white"/>
<path d="M61.2039 29.5944L61.2921 32.1865L63.1646 30.9915L62.7811 29.4843L61.2039 29.5944Z" fill="white"/>
<path d="M58.622 63.166L59.254 34.1451L57.0412 29.5222L56.6973 30.1269L58.8741 34.174L57.9792 63.2237L58.622 63.166Z" fill="white"/>
<path d="M62.5506 19.0055C62.5506 19.0055 62.1149 18.473 61.4559 18.5705C60.7951 18.668 60.6277 19.1409 60.6277 19.1409" stroke="#0C1640" stroke-width="2.21" stroke-miterlimit="10" stroke-linecap="round"/>
<path d="M68.0079 18.6337C68.0079 18.6337 67.5722 18.1012 66.9132 18.1987C66.2524 18.2962 66.085 18.7691 66.085 18.7691" stroke="#0C1640" stroke-width="2.21" stroke-miterlimit="10" stroke-linecap="round"/>
<path d="M39.8122 19.363L34.5764 18.3973L35.3128 15.8864L40.1849 16.9496L39.8122 19.363Z" fill="white"/>
<path d="M35.3129 17.6915C35.2931 17.899 35.4335 18.0814 35.628 18.1012C35.8224 18.1211 35.9971 17.9676 36.0169 17.7619C36.0367 17.5543 35.8963 17.3719 35.7018 17.3521C35.5074 17.3322 35.3327 17.4839 35.3129 17.6915Z" fill="#0C1640"/>
<path d="M78.4885 11.2886L78.7424 11.3121L83.4597 11.7453L83.7856 11.776H83.791L83.7568 9.15861L83.1842 9.12612L80.37 8.95825L79.8659 8.92936L79.5958 8.91312L78.782 8.86438L78.4885 11.2886Z" fill="white"/>
<path d="M83.2725 10.8969C83.2365 11.1027 83.051 11.2399 82.8584 11.2074C82.6657 11.1731 82.5397 10.9799 82.5757 10.7741C82.6117 10.5683 82.7972 10.4312 82.9898 10.4655C83.1825 10.4979 83.3085 10.6911 83.2725 10.8969Z" fill="#0C1640"/>
<path opacity="0.46" d="M33.3377 26.1954C33.2602 28.4536 33.4781 30.8382 34.2613 33.0404C35.9268 37.7355 40.284 39.0984 43.5842 39.4269C44.2126 39.4901 44.805 39.5136 45.3325 39.5172C46.1373 39.5226 46.9242 39.4793 47.6642 39.4143C47.5129 41.1021 47.4067 42.8007 47.4553 45.1961L47.6263 63.5523L49.4773 63.6191L49.317 39.2157L49.3062 37.4991C49.3062 37.4991 48.7354 37.5767 47.8334 37.6254C45.6116 37.7464 41.3786 37.6976 38.7103 35.9124C35.7233 33.9159 33.7626 29.5349 33.3377 26.1954Z" fill="#5B173A"/>
<path d="M33.2566 24.6539C33.3574 23.7892 33.3862 23.4751 33.325 23.8849C33.2872 24.125 33.2638 24.3813 33.2566 24.6539Z" fill="#2E3768"/>
<path opacity="0.46" d="M67.2949 36.5098C70.3071 34.4953 76.4666 30.0186 79.4806 25.2315C81.0525 22.7368 82.0265 19.7331 82.6315 17.0092C81.9869 19.1609 80.9894 21.67 79.4374 23.9245C76.5368 28.1323 70.8419 32.4772 67.9107 34.4502C67.0645 35.0188 67.3975 36.9015 67.2949 36.5098Z" fill="#5B173A"/>
<path d="M51.0526 61.9999H46.9097V107.001H51.0526V61.9999Z" fill="#827C91"/>
<path d="M104.052 61.998H99.9089V107H104.052V61.998Z" fill="#827C91"/>
<path d="M124.25 61.998H120.107V107H124.25V61.998Z" fill="#827C91"/>
<path d="M99.9089 61.998H104.052V76.8415L99.9089 78.9029V61.998Z" fill="#323966"/>
<path d="M124.25 61.998V66.7924L120.107 68.8539V61.998H124.25Z" fill="#323966"/>
<path d="M51.0868 61.9095V66.7671L46.8899 68.8538V61.9095H51.0868Z" fill="#323966"/>
<path d="M22.8191 63.3428H115.822V59.5611C115.822 58.5502 115.004 57.7307 113.996 57.7307H24.6448C23.6365 57.7307 22.8191 58.5502 22.8191 59.5611V63.3428Z" fill="#323966"/>
<path d="M56.7403 53.5753H36.429V57.9076H56.7403V53.5753Z" fill="#C4C4C9"/>
<path d="M56.7943 53.5266H47.4011V57.9582H56.7943V53.5266Z" fill="#E8EAEC"/>
<path d="M36.447 54.3732H56.7763" stroke="#968EAB" stroke-width="1.7691" stroke-miterlimit="10"/>
<path d="M36.447 55.2433H56.7763" stroke="#968EAB" stroke-width="1.7691" stroke-miterlimit="10"/>
<path d="M36.447 56.1151H56.7763" stroke="#968EAB" stroke-width="1.7691" stroke-miterlimit="10"/>
<path d="M36.447 56.9869H56.7763" stroke="#968EAB" stroke-width="1.7691" stroke-miterlimit="10"/>
<path d="M31.3048 70.3647H2.78687V106.994H31.3048V70.3647Z" fill="#65354D"/>
<path d="M43.703 70.3647H13.3845V106.994H43.703V70.3647Z" fill="#65354D"/>
<path d="M41.9098 73.0471H15.3237V82.7388H41.9098V73.0471Z" fill="#FA7C50"/>
<path d="M41.9098 84.4211H15.3237V94.1128H41.9098V84.4211Z" fill="#FA7C50"/>
<path d="M41.9098 95.7933H15.3237V105.485H41.9098V95.7933Z" fill="#FA7C50"/>
<path d="M33.2708 78.4119H26.6252C26.3408 78.4119 26.1067 78.1791 26.1067 77.8921C26.1067 77.6069 26.339 77.3722 26.6252 77.3722H33.2708C33.5553 77.3722 33.7894 77.6051 33.7894 77.8921C33.7894 78.1791 33.5553 78.4119 33.2708 78.4119Z" fill="white"/>
<path d="M33.5301 89.7065H26.8845C26.6 89.7065 26.366 89.4736 26.366 89.1866C26.366 88.9014 26.5982 88.6667 26.8845 88.6667H33.5301C33.8146 88.6667 34.0487 88.8996 34.0487 89.1866C34.0469 89.4718 33.8146 89.7065 33.5301 89.7065Z" fill="white"/>
<path d="M33.5301 100.999H26.8845C26.6 100.999 26.366 100.766 26.366 100.479C26.366 100.194 26.5982 99.9596 26.8845 99.9596H33.5301C33.8146 99.9596 34.0487 100.192 34.0487 100.479C34.0469 100.766 33.8146 100.999 33.5301 100.999Z" fill="white"/>
<path d="M67.7558 51.7341V58.1044H62.448V51.7341C62.448 51.4543 62.6767 51.2251 62.9557 51.2251H67.2499C67.5272 51.2251 67.7558 51.4543 67.7558 51.7341Z" fill="#FFAC3D"/>
<path d="M62.5127 57.0141C62.4425 56.9744 60.8131 56.0177 60.669 54.3407C60.6132 53.7017 60.8545 53.3064 61.067 53.0862C61.6503 52.4815 62.619 52.5176 62.7288 52.523L62.6856 53.301C62.4893 53.292 61.9096 53.3317 61.6233 53.6295C61.4775 53.7812 61.418 53.9924 61.4433 54.274C61.5531 55.5502 62.8872 56.3318 62.8999 56.339L62.5127 57.0141Z" fill="#F66438"/>
<path d="M66.4432 55.2812H64.9218C64.3942 55.2812 63.9675 54.8534 63.9675 54.3245C63.9675 53.7956 64.3942 53.3678 64.9218 53.3678H66.4432C66.9707 53.3678 67.3975 53.7956 67.3975 54.3245C67.3993 54.8534 66.9707 55.2812 66.4432 55.2812Z" fill="#D04234"/>
<path d="M65.2746 58.1044H62.446V51.7341C62.446 51.4543 62.6747 51.2251 62.9538 51.2251H63.1248C63.132 51.5572 63.2239 54.0988 63.935 55.9292C64.5544 57.5231 65.1054 57.9943 65.2746 58.1044Z" fill="#F66438"/>
<path d="M106.857 54.3912H121.099" stroke="#968EAB" stroke-width="1.4382" stroke-miterlimit="10"/>
<path d="M106.857 55.2144H121.099" stroke="#968EAB" stroke-width="1.4382" stroke-miterlimit="10"/>
<path d="M106.857 55.8552H121.099" stroke="#968EAB" stroke-width="1.4382" stroke-miterlimit="10"/>
<path d="M106.857 56.6765H121.099" stroke="#968EAB" stroke-width="1.4382" stroke-miterlimit="10"/>
<path d="M45.3992 53.6476L48.8075 46.2917L52.1744 53.5628L45.3992 53.6476Z" fill="white"/>
<path d="M48.8093 46.3351H42.6804V53.431H48.8093V46.3351Z" fill="white"/>
<path d="M39.5295 53.6476L42.6372 46.3784L46.0023 53.6476H39.5295Z" fill="#323966"/>
<path d="M48.2475 47.2449H45.1831V47.5481H48.2475V47.2449Z" fill="#968EAB"/>
<path d="M48.5068 47.8496H45.4424V48.1529H48.5068V47.8496Z" fill="#968EAB"/>
<path d="M47.1403 52.7523L45.4983 48.8695L49.0741 48.8839L50.8385 52.6476L47.1403 52.7523ZM45.8854 49.1222L47.3078 52.4852L50.4316 52.4093L48.9138 49.1475L45.8854 49.1222Z" fill="#968EAB"/>
<path d="M46.0779 49.6781H49.353" stroke="#968EAB" stroke-width="1.4611" stroke-miterlimit="10"/>
<path d="M46.3623 50.3876H49.6356" stroke="#968EAB" stroke-width="1.4611" stroke-miterlimit="10"/>
<path d="M46.5964 51.0951H49.8697" stroke="#968EAB" stroke-width="1.4611" stroke-miterlimit="10"/>
<path d="M46.98 51.8046H50.2533" stroke="#968EAB" stroke-width="1.4611" stroke-miterlimit="10"/>
<path d="M48.3772 49.0789L49.8986 52.4689" stroke="#968EAB" stroke-width="1.4611" stroke-miterlimit="10"/>
<path d="M47.4697 49.0951L48.9911 52.4851" stroke="#968EAB" stroke-width="1.4611" stroke-miterlimit="10"/>
<path d="M46.5803 49.0302L48.0855 52.5501" stroke="#968EAB" stroke-width="1.4611" stroke-miterlimit="10"/>
<path d="M123.395 41.1671L122.546 41.0164L120.47 52.7763L121.319 52.927L123.395 41.1671Z" fill="#4257A4"/>
<path d="M123.704 40.916L122.387 40.6823L121.762 44.2195L123.08 44.4532L123.704 40.916Z" fill="#4257A4"/>
<path d="M119.905 54.4255L119.044 54.3533L120.04 42.4522L120.56 41.6923L120.899 42.5244L119.905 54.4255Z" fill="#65354D"/>
<path d="M118.71 55.0339L117.862 55.1999L115.586 43.4775L115.879 42.6021L116.432 43.3115L118.71 55.0339Z" fill="#122F51"/>
<path d="M120.614 57.7614H116.925L115.715 47.9686H121.823L120.614 57.7614Z" fill="#F66438"/>
<path d="M122.004 57.7614H118.315L117.771 47.9686H123.214L122.004 57.7614Z" fill="#FFAC3D"/>
<path d="M31.3571 65.5541V70.3918H16.3788C15.3327 70.3918 14.4397 69.7221 14.1048 68.787C14.0148 68.5343 13.9644 68.2599 13.9644 67.9729C13.9644 67.3068 14.2344 66.7021 14.6701 66.2635C15.1095 65.8266 15.7126 65.5559 16.3788 65.5559H31.3571V65.5541Z" fill="#4257A4"/>
<path d="M25.7143 68.787V70.3917H16.3788C15.3327 70.3917 14.4396 69.722 14.1047 68.787H25.7143Z" fill="#31477D"/>
<path d="M37.0196 65.5541V70.3936H22.0413C20.709 70.3936 19.6287 69.3105 19.6287 67.9747C19.6287 67.3086 19.8987 66.7021 20.3345 66.2635C20.7738 65.8266 21.3769 65.5559 22.0413 65.5559L37.0196 65.5541Z" fill="#0E254A"/>
<path d="M37.0197 66.3844V69.4874H22.6914C21.8362 69.4874 21.1448 68.7942 21.1448 67.9368C21.1448 67.509 21.3176 67.1209 21.5967 66.8393C21.8776 66.5595 22.2647 66.3862 22.6914 66.3862L37.0197 66.3844Z" fill="#E8EAEC"/>
<path d="M31.6829 55.9382V60.7777H16.7046C15.3723 60.7777 14.292 59.6947 14.292 58.3589C14.292 57.6928 14.5621 57.0863 14.9978 56.6476C15.4371 56.2108 16.0403 55.94 16.7046 55.94L31.6829 55.9382Z" fill="#FFAC3D"/>
<path d="M25.9915 57.5538V55.9491H16.6578C15.6117 55.9491 14.7187 56.6188 14.3838 57.5538H25.9915Z" fill="#FFD533"/>
<path d="M37.0196 55.9382V60.7777H22.0413C20.709 60.7777 19.6287 59.6947 19.6287 58.3589C19.6287 57.6928 19.8987 57.0863 20.3345 56.6476C20.7738 56.2108 21.3769 55.94 22.0413 55.94L37.0196 55.9382Z" fill="#FA7C50"/>
<path d="M37.0197 56.7686V59.8715H22.6914C21.8362 59.8715 21.1448 59.1784 21.1448 58.321C21.1448 57.8931 21.3176 57.505 21.5967 57.2234C21.8776 56.9437 22.2647 56.7704 22.6914 56.7704L37.0197 56.7686Z" fill="#E8EAEC"/>
<path d="M32.5545 60.8048V65.6443H17.5744C16.2421 65.6443 15.1636 64.5594 15.1636 63.2236C15.1636 62.8139 15.2662 62.4258 15.4463 62.0864C15.5597 61.8752 15.7037 61.6803 15.8694 61.5106C16.3087 61.0737 16.9118 60.803 17.5744 60.803H32.5545V60.8048Z" fill="#A1CF3A"/>
<path d="M30.2373 60.8048V62.0882H15.4463C15.5597 61.877 15.7038 61.6821 15.8694 61.5124C16.3087 61.0756 16.9119 60.8048 17.5745 60.8048H30.2373Z" fill="#709D2B"/>
<path d="M30.2373 65.6461V64.3627H15.4463C15.5597 64.5739 15.7038 64.7688 15.8694 64.9385C16.3087 65.3753 16.9119 65.6461 17.5745 65.6461H30.2373Z" fill="#709D2B"/>
<path d="M39.96 60.8048V65.6443H24.9817C23.6494 65.6443 22.5691 64.5613 22.5691 63.2255C22.5691 62.5594 22.8392 61.9529 23.2749 61.5142C23.7142 61.0774 24.3174 60.8066 24.9817 60.8066L39.96 60.8048Z" fill="#4E8530"/>
<path d="M39.9599 61.6351V64.7381H25.6316C24.7764 64.7381 24.085 64.045 24.085 63.1875C24.085 62.7597 24.2578 62.3716 24.5369 62.09C24.8178 61.8102 25.2049 61.6369 25.6316 61.6369L39.9599 61.6351Z" fill="#E8EAEC"/>
<path d="M16.9477 57.617C14.9437 60.3535 10.9232 60.8066 10.9232 60.8066C10.9232 60.8066 10.1526 56.8245 12.1566 54.0898C14.1605 51.3532 18.181 50.9001 18.181 50.9001C18.181 50.9001 18.9516 54.8822 16.9477 57.617Z" fill="#53803A"/>
<path d="M8.53224 55.9815C10.3705 57.7975 10.2697 60.886 10.2697 60.886C10.2697 60.886 7.19088 61.0322 5.35438 59.2163C3.51788 57.4004 3.61691 54.3118 3.61691 54.3118C3.61691 54.3118 6.69574 54.1674 8.53224 55.9815Z" fill="#3D6A3A"/>
<path d="M13.0857 54.6079C13.4584 57.9816 10.808 61.0449 10.808 61.0449C10.808 61.0449 7.55096 58.6387 7.17826 55.2649C6.80555 51.8912 9.45587 48.8279 9.45587 48.8279C9.45587 48.8279 12.713 51.2341 13.0857 54.6079Z" fill="#63B259"/>
<path d="M12.8373 70.3665H5.86401L3.57739 60.1658H15.1239L12.8373 70.3665Z" fill="#65354D"/>
<path d="M15.466 70.3665H8.49268L7.4646 60.1658H17.7526L15.466 70.3665Z" fill="#A0533B"/>
<path d="M43.3628 63.3428H131.187V59.5611C131.187 58.5502 130.37 57.7307 129.361 57.7307H45.1885C44.1802 57.7307 43.3628 58.5502 43.3628 59.5611V63.3428Z" fill="#C96239"/>
</g>
<defs>
<clipPath id="clip0_1_3767">
<rect width="131" height="107" fill="white" transform="translate(0.187012 -0.000488281)"/>
</clipPath>
</defs>
</svg>
